	<svg xmlns="http://www.w3.org/2000/svg" viewBox="-117 -136 1000 1000" class="shift">
		<g>
		<path d="M429.144 174.628c-1.454-.168-4.36-.502-7.225-.862-2.865-.36-5.687-.747-8.4-1.149a325.328 325.328 0 01-16.802-2.934 261.176 261.176 0 01-8.808-1.935 247.02 247.02 0 01-8.555-2.2 166.91 166.91 0 01-7.299-2.195 161.539 161.539 0 01-6.594-2.308 118.21 118.21 0 01-5.392-2.172 99.187 99.187 0 01-4.301-1.98 72.34 72.34 0 01-3.63-1.904 80.222 80.222 0 01-3.52-2.098 50.978 50.978 0 01-3.216-2.202 60.91 60.91 0 01-3.681-2.949 49.228 49.228 0 01-3.728-3.594 53.027 53.027 0 01-3.277-3.887 28.53 28.53 0 01-2.27-3.437 39.609 39.609 0 01-2.066-4.224 29.238 29.238 0 01-1.484-4.608 30.272 30.272 0 01-.722-4.923c-.1-1.627-.05-3.125.15-4.675a26.64 26.64 0 011.043-4.648 23.248 23.248 0 011.774-4.107 23.814 23.814 0 012.41-3.566 23.387 23.387 0 012.986-3.039 30.393 30.393 0 013.468-2.532 29.351 29.351 0 013.572-1.912 54.496 54.496 0 014.58-1.83 90.326 90.326 0 015.337-1.66c1.696-.474 3.192-.844 4.866-1.229 1.674-.385 3.528-.786 5.403-1.183 1.874-.397 3.79-.794 5.839-1.237 2.048-.444 4.242-.937 6.332-1.46a90.082 90.082 0 005.84-1.647 51.352 51.352 0 005.204-1.968c1.631-.73 3.16-1.542 4.572-2.47a24.249 24.249 0 003.937-3.21 23.188 23.188 0 003.092-3.907 19.42 19.42 0 001.985-4.14c.515-1.491.908-3.14 1.137-4.62a21.92 21.92 0 00.25-4.178 30.443 30.443 0 00-.441-4.243 33.406 33.406 0 00-2.561-8.145 44.77 44.77 0 00-2.222-4.216 46.02 46.02 0 00-2.83-4.193 57.78 57.78 0 00-3.582-4.275 65.12 65.12 0 00-4.055-4.014 61.012 61.012 0 00-4.468-3.69 101.258 101.258 0 00-6.035-4.2 113.807 113.807 0 00-6.895-4.089c-2.354-1.289-4.73-2.49-7.048-3.59a150.536 150.536 0 00-7.017-3.105c-2.37-.98-4.818-1.928-7.376-2.853a197.198 197.198 0 00-7.988-2.696 231.827 231.827 0 00-15.408-4.252 185.89 185.89 0 00-5.486-1.231 216.407 216.407 0 00-5.805-1.134c-2.172-.394-4.63-.81-6.822-1.152a213.11 213.11 0 00-6.046-.861A232.012 232.012 0 00287.517.663a220.816 220.816 0 00-7.292-.42 258.56 258.56 0 00-8.168-.202A212.336 212.336 0 00257.6.406c-2.377.14-4.914.329-7.36.549-2.445.22-4.769.468-7.321.787a233.712 233.712 0 00-15.426 2.444c-2.34.45-4.393.885-6.303 1.315-1.91.43-3.705.863-5.506 1.324-1.8.461-3.633.957-5.467 1.453-1.527.458-3.055.917-4.781 1.466-1.727.549-3.677 1.197-5.965 2.022-2.288.825-4.926 1.83-7.42 2.854a122.02 122.02 0 00-7.451 3.34 153.924 153.924 0 00-7.858 4.13 90.412 90.412 0 00-6.017 3.702 73.428 73.428 0 00-4.85 3.531 76.76 76.76 0 00-4.68 4.026 57.979 57.979 0 00-4.068 4.2 59.273 59.273 0 00-3.552 4.48 45.229 45.229 0 00-2.832 4.473 45.987 45.987 0 00-2.326 4.844 33.825 33.825 0 00-1.682 5.26 39.882 39.882 0 00-.938 6.252 27.674 27.674 0 001.616 11.384 21.912 21.912 0 002.29 4.583 26.3 26.3 0 003.333 4.112 23.31 23.31 0 004.049 3.255c1.545.994 3.34 1.94 5.323 2.79 1.982.85 4.069 1.575 5.968 2.157a75.24 75.24 0 005.139 1.368c1.565.364 2.936.648 4.492.947 1.555.3 3.254.604 4.772.866 1.517.262 2.854.483 4.253.71 1.4.229 2.86.464 4.512.739 1.652.275 3.582.604 5.29.912 1.707.308 3.235.602 4.64.893 1.403.292 2.684.58 3.953.89 1.27.313 2.527.649 3.81 1.03 1.281.382 2.586.81 3.852 1.278 1.267.467 2.478.969 3.75 1.582a42.21 42.21 0 013.698 2.017 24.167 24.167 0 012.89 2.074c.9.75 1.766 1.563 2.613 2.481a26.796 26.796 0 012.4 3.005 30.474 30.474 0 012.064 3.507 26.421 26.421 0 011.48 3.594c.412 1.246.761 2.583 1.008 3.78a29.4 29.4 0 01.494 3.446c.094 1.1.128 2.11.089 3.375a34.749 34.749 0 01-.42 4.393 38.68 38.68 0 01-1.258 5.355 40.595 40.595 0 01-2.074 5.304 34.52 34.52 0 01-2.64 4.62 41.704 41.704 0 01-3.546 4.536 46.137 46.137 0 01-4.378 4.247 50.011 50.011 0 01-4.607 3.463 55.616 55.616 0 01-4.575 2.743 69.127 69.127 0 01-5.019 2.45 93.017 93.017 0 01-5.91 2.364 108.346 108.346 0 01-6.342 2.074c-2.158.636-4.335 1.21-6.236 1.675-1.9.465-3.525.82-5.422 1.192-1.897.373-4.188.786-6.54 1.16-2.352.373-4.828.719-7.831 1.06-3.003.342-6.533.678-10.104.938-3.57.26-7.192.442-10.896.551-3.704.11-7.504.145-11.06.12a292.815 292.815 0 01-10.18-.251 295.32 295.32 0 01-10.748-.643c-4.119-.317-9.04-.762-13.899-1.28a490.012 490.012 0 01-14.339-1.752 605.941 605.941 0 01-14.186-2.115c-4.788-.768-9.78-1.619-15.088-2.567a1687.154 1687.154 0 01-16.42-3.029 3825.044 3825.044 0 01-15.315-2.937c-.667 2.338-1.334 4.676-1.958 6.881a887.78 887.78 0 00-1.771 6.337c-.6 2.177-1.233 4.515-1.795 6.636a334.679 334.679 0 00-1.686 6.604 484.865 484.865 0 00-2.07 8.799 257.176 257.176 0 00-1.789 8.629 273.837 273.837 0 00-1.674 9.776 289.665 289.665 0 00-1.382 10.382 220.83 220.83 0 00-.807 8.541c-.19 2.53-.32 4.827-.418 7.227-.098 2.4-.162 4.904-.188 7.373a224.59 224.59 0 00.045 7.427c.056 2.524.156 5.136.282 7.504.125 2.369.275 4.495.432 6.388.156 1.893.32 3.553.506 5.228.187 1.675.408 3.45.718 5.57.31 2.119.699 4.543 1.117 6.846.418 2.304.842 4.363 1.357 6.577a130.789 130.789 0 001.744 6.704c.65 2.247 1.363 4.454 2.123 6.563a87.313 87.313 0 002.346 5.864 58.178 58.178 0 002.615 5.22 60.673 60.673 0 003.513 5.516 48.173 48.173 0 004.03 4.88 41.221 41.221 0 003.905 3.626 33.21 33.21 0 003.713 2.644 44.143 44.143 0 004.402 2.375 37.98 37.98 0 004.53 1.772c1.5.478 2.992.852 4.57 1.137 1.58.284 3.239.478 4.92.555 1.682.077 3.387.037 5.054-.122 1.667-.16 3.32-.442 4.915-.84a26.838 26.838 0 004.86-1.708 33.314 33.314 0 005.27-3.048 25.797 25.797 0 004.416-4c1.322-1.501 2.536-3.197 3.672-5.112 1.136-1.915 2.196-4.049 3.194-6.365.998-2.316 1.935-4.815 2.733-7.066.798-2.25 1.456-4.25 2.095-6.184.64-1.934 1.26-3.8 1.94-5.72a110.34 110.34 0 012.245-5.849 71.436 71.436 0 012.317-4.969 31.7 31.7 0 011.862-3.177 29.743 29.743 0 011.906-2.548 22.148 22.148 0 012.276-2.348c.879-.781 1.933-1.599 2.961-2.282a21.558 21.558 0 013.145-1.733 25.398 25.398 0 013.537-1.281 27.195 27.195 0 013.78-.77 25.627 25.627 0 013.806-.214 31.982 31.982 0 018.612 1.336c1.5.443 3.085 1.026 4.569 1.678a41.273 41.273 0 014.262 2.182 42.67 42.67 0 013.908 2.591 52.014 52.014 0 013.873 3.182 62.86 62.86 0 013.623 3.564 55.47 55.47 0 012.879 3.32 68.06 68.06 0 012.624 3.497c.863 1.229 1.72 2.529 2.344 3.507.625.979 1.027 1.65 1.401 2.291.375.642.726 1.26 1.095 1.932.37.67.757 1.394 1.498 2.898.74 1.504 1.834 3.788 2.967 6.389 1.132 2.6 2.26 5.409 3.253 8.075a141.126 141.126 0 012.644 7.755c.85 2.732 1.727 5.78 2.506 8.719a211.37 211.37 0 012.079 8.56 229.44 229.44 0 011.696 8.412 245.097 245.097 0 011.472 9.007c.465 3.209.908 6.682 1.265 9.893.357 3.21.628 6.16.85 9.038.221 2.878.393 5.685.528 8.71.134 3.026.231 6.272.278 9.268.047 2.997.044 5.744-.013 8.77a355.408 355.408 0 01-.297 9.146c-.129 2.81-.274 5.11-.448 7.42a303.137 303.137 0 01-.591 6.808 257.527 257.527 0 01-.729 6.567 300.318 300.318 0 01-3.735 22.908 216.91 216.91 0 01-1.362 6.27 273.01 273.01 0 01-1.718 6.98c-.641 2.46-1.341 4.997-2.083 7.518a241.32 241.32 0 01-2.28 7.321 184.196 184.196 0 01-2.276 6.515 199.233 199.233 0 01-2.553 6.544c-.884 2.148-1.8 4.249-2.76 6.328a140.303 140.303 0 01-3.096 6.29 118.686 118.686 0 01-3.682 6.53 107.29 107.29 0 01-4.322 6.573 76.081 76.081 0 01-4.602 5.836 71.306 71.306 0 01-4.942 5.113 54.243 54.243 0 01-4.824 4.02 53.275 53.275 0 01-4.873 3.206c-1.6.928-3.144 1.7-4.875 2.416a49.754 49.754 0 01-5.33 1.85c-1.68.472-3.12.756-4.71.945-1.592.19-3.337.285-4.884.27a24.736 24.736 0 01-4.402-.416 32.84 32.84 0 01-4.814-1.28 23.852 23.852 0 01-4.532-2.143 28.694 28.694 0 01-4.43-3.31 26.533 26.533 0 01-3.765-4.268c-1.132-1.592-2.157-3.373-3.124-5.482-.967-2.11-1.877-4.55-2.687-7.214-.81-2.664-1.521-5.554-2.172-8.62-.65-3.065-1.24-6.304-1.787-9.421-.547-3.117-1.067-6.197-1.587-9.04-.52-2.841-1.046-5.488-1.628-7.997-.582-2.51-1.218-4.88-1.974-7.173a62.631 62.631 0 00-2.42-6.237c-.793-1.732-1.505-2.985-2.381-4.259a28.447 28.447 0 00-3.11-3.786 25.652 25.652 0 00-3.965-3.31 24.664 24.664 0 00-4.678-2.489 26.586 26.586 0 00-5.202-1.484 25.043 25.043 0 00-5.219-.358c-1.73.06-3.472.29-5.261.715a35.494 35.494 0 00-5.158 1.674 26.668 26.668 0 00-4.061 2.08 35.3 35.3 0 00-4.13 2.998 50.063 50.063 0 00-4.528 4.339 49.476 49.476 0 00-3.803 4.698 52.145 52.145 0 00-3.036 4.78 67.798 67.798 0 00-2.959 5.917c-1.041 2.342-2.155 5.122-3.347 8.66-1.19 3.537-2.478 7.902-3.256 10.661-.779 2.76-1.061 3.956-1.584 6.516-.522 2.559-1.285 6.48-1.936 10.316a248.523 248.523 0 00-1.69 11.669 298.94 298.94 0 00-1.273 12.81c-.364 4.63-.666 9.7-.864 14.418a331.1 331.1 0 00-.3 13.781c-.01 4.788.068 10.039.195 14.493.128 4.454.305 8.104.569 12.092.263 3.988.612 8.31 1.077 12.934a458.088 458.088 0 001.606 13.761 339.4 339.4 0 001.67 11.215c.576 3.479 1.187 6.887 1.933 10.727.747 3.84 1.62 8.056 2.565 12.34a559.02 559.02 0 002.938 12.592c1.005 4.1 2.028 8.079 3.09 12.081 1.061 4.003 2.214 8.219 3.29 12.08 1.074 3.86 2.094 7.45 3.014 10.67.92 3.219 1.74 6.067 2.561 8.916 2.641.567 5.285 1.135 8.273 1.77 2.988.634 6.324 1.335 9.588 2.005 3.264.67 6.457 1.307 9.636 1.919 3.178.612 6.347 1.198 9.88 1.81 3.532.613 7.429 1.252 10.96 1.794 3.532.542 6.7.986 9.834 1.389 3.134.403 6.236.765 9.483 1.102 3.247.336 6.644.648 9.845.905 3.202.257 6.086.452 9.214.622 3.127.17 6.437.314 9.87.417 3.431.102 6.99.165 10.452.184 3.462.02 6.832-.004 10.513-.079 3.68-.075 7.671-.202 11.412-.363 3.74-.161 7.227-.356 10.846-.603a461.33 461.33 0 0011.181-.898 439.49 439.49 0 0011.499-1.216c3.807-.455 7.542-.955 11.505-1.558a374.053 374.053 0 0012.274-2.074c4-.749 7.753-1.532 11.442-2.388a217.362 217.362 0 0010.685-2.753 158.98 158.98 0 0010.544-3.396 149.157 149.157 0 0010.04-4.058c2.902-1.31 5.05-2.433 7.133-3.659a64.067 64.067 0 005.975-3.966 53.811 53.811 0 005.4-4.62 46.32 46.32 0 004.552-5.17 34.226 34.226 0 003.412-5.516 37.157 37.157 0 002.36-6.103c.558-1.966.86-3.861.978-5.592.117-1.73.06-3.361-.159-4.988a25.81 25.81 0 00-1.112-4.762 22.4 22.4 0 00-1.962-4.283 23.983 23.983 0 00-2.874-3.912 23.804 23.804 0 00-3.78-3.385c-1.459-1.059-3.142-2.059-4.97-2.957-1.828-.898-3.692-1.65-6.443-2.518-2.75-.868-6.336-1.832-9.531-2.609-3.195-.777-6.117-1.392-9.11-2.046-2.992-.654-6.111-1.359-8.742-2.034-2.632-.674-4.773-1.318-6.566-1.937a42.91 42.91 0 01-4.723-1.928 34.666 34.666 0 01-3.713-2.08 19.34 19.34 0 01-2.762-2.144 23.377 23.377 0 01-2.657-2.924 21.612 21.612 0 01-2.307-3.772 23.714 23.714 0 01-1.6-4.452 24.441 24.441 0 01-.688-4.626 24.674 24.674 0 01.202-4.71c.226-1.674.62-3.516 1.147-5.278a32.986 32.986 0 012.097-5.286 53.608 53.608 0 013.22-5.578 48.423 48.423 0 013.365-4.496 45.81 45.81 0 013.573-3.798 81.856 81.856 0 015.337-4.666 86.873 86.873 0 016.428-4.653c2.246-1.48 4.662-2.93 7.163-4.308a142.21 142.21 0 017.994-4.064 153.537 153.537 0 018.301-3.602 199.496 199.496 0 018.689-3.237 176.108 176.108 0 018.442-2.693c2.972-.87 6.27-1.764 9.296-2.525a218.66 218.66 0 018.408-1.939c2.625-.552 5.12-1.029 7.724-1.48 2.603-.452 5.316-.877 7.929-1.246 2.613-.368 5.127-.678 7.502-.936 2.375-.26 4.612-.466 7.04-.65s4.92-.337 7.915-.454a247.08 247.08 0 019.672-.189c3.368.002 6.737.082 10.533.277 3.796.196 8.025.51 12.064.912 4.04.403 7.89.895 11.724 1.487 3.834.593 7.653 1.285 11.314 2.044a198.275 198.275 0 0121.149 5.606c3.374 1.1 6.677 2.293 9.493 3.39a129.83 129.83 0 017.586 3.216c2.382 1.101 4.755 2.282 7.22 3.628a137.188 137.188 0 017.055 4.14 73.259 73.259 0 014.81 3.276 69.07 69.07 0 013.9 3.107 55.424 55.424 0 014.058 3.835 69.302 69.302 0 014.8 5.585 45.255 45.255 0 014.07 6.295c1.219 2.28 2.338 4.845 3.146 7.298.809 2.452 1.315 4.81 1.554 7.202.24 2.392.213 4.82-.127 7.206a26.843 26.843 0 01-1.886 6.788 25.809 25.809 0 01-3.18 5.454 21.55 21.55 0 01-3.623 3.74 28.363 28.363 0 01-4.271 2.858c-1.552.854-3.23 1.612-5.161 2.333-1.931.721-4 1.369-6.52 2.02-2.521.65-5.437 1.285-8.206 1.826-2.769.54-5.388.987-8.592 1.53-3.204.541-6.994 1.179-10.348 1.818-3.354.64-6.274 1.28-8.965 2-2.692.72-5.157 1.517-7.732 2.646s-5.197 2.554-7.628 4.463a27.8 27.8 0 00-6.396 7.084c-1.757 2.803-3.06 6.032-3.806 9.257-.746 3.225-.924 6.324-.738 9.266a31.903 31.903 0 001.601 8.225 38.175 38.175 0 003.691 7.929c1.58 2.579 3.513 5.06 5.387 7.086 1.875 2.026 3.637 3.55 5.845 5.134 2.207 1.584 4.833 3.204 7.454 4.601 2.62 1.397 5.238 2.572 8.411 3.763 3.174 1.192 6.901 2.399 10.77 3.448 3.87 1.05 7.78 1.918 11.333 2.6a163.1 163.1 0 009.738 1.561c3.038.398 5.968.71 8.904.966s5.877.456 11.036.591c5.16.136 12.535.208 18.435.138 5.899-.07 10.318-.284 14.334-.539 4.015-.255 7.623-.55 11.592-.94a501.5 501.5 0 0012.44-1.381 525.11 525.11 0 0012.363-1.68c4.09-.602 8.23-1.254 12.565-1.976a962.529 962.529 0 0013.845-2.415c4.98-.903 10.408-1.919 15.295-2.847 4.888-.929 9.232-1.77 13.578-2.61a2523.06 2523.06 0 01-1.891-6.66c-.682-2.415-1.442-5.129-2.147-7.697a563.485 563.485 0 01-1.984-7.414 383.226 383.226 0 01-3.848-16.175 270.012 270.012 0 01-1.606-8.04 254.72 254.72 0 01-1.352-8.062c-.42-2.774-.812-5.681-1.172-8.884-.36-3.203-.687-6.709-.923-9.838-.236-3.128-.38-5.88-.475-8.656a244.64 244.64 0 01-.143-8.26c0-2.683.045-5.25.145-7.968.099-2.718.252-5.588.406-7.916.153-2.328.307-4.111.493-5.967.187-1.855.407-3.781.67-5.79.264-2.01.572-4.103.853-5.857.28-1.753.534-3.166.767-4.394.233-1.227.446-2.267.702-3.436.256-1.17.555-2.467.848-3.666.292-1.198.58-2.3.864-3.337a103.388 103.388 0 011.995-6.473c.41-1.195.863-2.439 1.324-3.627.46-1.188.937-2.341 1.42-3.437a68.209 68.209 0 013.324-6.58 55.822 55.822 0 012.02-3.244 45.577 45.577 0 012.207-3.017 43.672 43.672 0 012.597-2.976 41.66 41.66 0 013.041-2.874 44.69 44.69 0 013.341-2.586 35.534 35.534 0 013.219-2.011 43.414 43.414 0 013.356-1.67 37.754 37.754 0 012.966-1.173 31.44 31.44 0 012.674-.803c.95-.241 2.03-.477 3.077-.662a29.93 29.93 0 013.227-.4 43.712 43.712 0 013.955-.104c1.337.028 2.584.13 3.93.329 1.344.2 2.845.51 4.14.852 1.294.342 2.411.722 3.586 1.214a33.815 33.815 0 013.485 1.707 26.732 26.732 0 015.301 3.931 23.066 23.066 0 011.985 2.142 32.53 32.53 0 012.155 2.956 55.35 55.35 0 012.22 3.767 44.268 44.268 0 011.61 3.318 94.696 94.696 0 011.502 3.655c.47 1.213.89 2.365 1.36 3.718.47 1.352.952 2.79 1.522 4.513.57 1.724 1.206 3.673 1.821 5.506a164.408 164.408 0 001.766 5.031 80.058 80.058 0 001.88 4.646 61.483 61.483 0 002.061 4.214 32.164 32.164 0 001.94 3.17c.658.944 1.42 1.915 2.26 2.833a26.428 26.428 0 002.63 2.505c.897.74 1.771 1.35 2.678 1.894a22.787 22.787 0 002.88 1.464c1.033.438 2.127.82 3.346 1.14 1.218.319 2.55.571 3.877.724a29.76 29.76 0 003.887.184c1.23-.022 2.358-.119 3.535-.29 1.178-.17 2.285-.389 3.497-.703a40.423 40.423 0 003.591-1.12 34.789 34.789 0 003.06-1.281c.96-.456 1.905-.95 2.784-1.45.88-.5 1.755-1.042 2.726-1.706a60.553 60.553 0 003.168-2.333 50.432 50.432 0 002.747-2.336 52.414 52.414 0 002.397-2.336 58.58 58.58 0 002.325-2.555 68.389 68.389 0 002.33-2.866c.755-.981 1.521-2.038 2.383-3.323a96.59 96.59 0 002.79-4.427 96.43 96.43 0 002.68-4.843 116.72 116.72 0 002.493-5.137 138.338 138.338 0 002.225-5.163c.68-1.669 1.327-3.357 1.855-4.789.529-1.431.999-2.773 1.525-4.365.527-1.591 1.13-3.49 1.521-4.746.392-1.256.555-1.81.91-3.09.356-1.28.895-3.257 1.432-5.357.536-2.1 1.03-4.155 1.507-6.275.478-2.12.92-4.217 1.319-6.238.4-2.02.756-3.961 1.166-6.443.41-2.481.873-5.506 1.26-8.292.385-2.786.694-5.337.984-8.101.29-2.764.547-5.567.77-8.561.224-2.994.408-6.091.539-8.966.13-2.875.208-5.53.247-6.856.04-1.326.04-10.584-.01-12.043-.047-1.458-.14-4.376-.276-7.246-.135-2.87-.311-5.688-.505-8.278-.195-2.59-.407-4.951-.68-7.56-.272-2.608-.603-5.44-.953-8.125-.349-2.685-.69-5.042-1.105-7.642a326.46 326.46 0 00-1.345-7.803c-.459-2.48-.897-4.665-1.286-6.52a230.92 230.92 0 00-2.36-10.13 270.424 270.424 0 00-1.734-6.429 241.806 241.806 0 00-2.083-6.957 228.918 228.918 0 00-2.218-6.656c-.726-2.07-1.445-4.01-2.34-6.267a223.53 223.53 0 00-2.989-7.157 136.555 136.555 0 00-2.912-6.218c-.98-1.962-1.957-3.81-3.14-5.884a132.885 132.885 0 00-3.813-6.274 85.582 85.582 0 00-3.618-5.167 65.97 65.97 0 00-3.657-4.43 70.917 70.917 0 00-4.416-4.485 57.857 57.857 0 00-4.816-4.002 51.588 51.588 0 00-5.06-3.312 40.334 40.334 0 00-5.278-2.551 50.528 50.528 0 00-5.699-1.87 30.756 30.756 0 00-4.5-.844 30.962 30.962 0 00-3.952-.192c-1.307.02-2.713.13-4.13.352a30.837 30.837 0 00-4.274.986c-1.39.43-2.627.922-3.82 1.5a23.355 23.355 0 00-3.374 1.981 29.25 29.25 0 00-3.364 2.77 27.56 27.56 0 00-2.864 3.218 29.396 29.396 0 00-2.264 3.476 37.93 37.93 0 00-1.928 4.008 62.475 62.475 0 00-1.712 4.67 69.274 69.274 0 00-1.362 4.823 151.318 151.318 0 00-1.246 5.526 185.246 185.246 0 00-1.02 5.374c-.332 1.878-.687 3.979-1.031 6.02-.345 2.04-.68 4.02-1.012 5.891a220.9 220.9 0 01-1.005 5.327 137.661 137.661 0 01-1.081 4.896 85.403 85.403 0 01-1.105 4.138 57.233 57.233 0 01-1.214 3.678 51.517 51.517 0 01-1.51 3.66 34.484 34.484 0 01-1.654 3.173 26.642 26.642 0 01-1.958 2.881 29.82 29.82 0 01-2.555 2.87 25.283 25.283 0 01-8.855 5.65c-1.016.38-2.032.684-3.174.932s-2.41.442-3.587.547a25.228 25.228 0 01-6.409-.246 29.985 29.985 0 01-3.382-.774 31.202 31.202 0 01-3.372-1.194 28.006 28.006 0 01-3.314-1.654 45.947 45.947 0 01-3.545-2.286 29.678 29.678 0 01-3.218-2.662 57.673 57.673 0 01-3.812-3.98 46.642 46.642 0 01-3.362-4.374 61.035 61.035 0 01-3.027-4.939 70.243 70.243 0 01-2.864-5.86 103.969 103.969 0 01-2.918-7.5 142.047 142.047 0 01-2.801-9.095 183.392 183.392 0 01-2.347-9.678 220.356 220.356 0 01-1.729-8.987c-.473-2.759-.845-5.222-1.195-7.79a293.54 293.54 0 01-.946-7.7 333.823 333.823 0 01-.738-7.537 280.814 280.814 0 01-.527-7.14 417.15 417.15 0 01-.44-8.59 389.058 389.058 0 01-.257-8.703c-.053-2.831-.073-5.56-.047-8.872.025-3.311.095-7.2.238-11.313a392.19 392.19 0 011.712-25.527 369.869 369.869 0 013.124-23.52c.67-4.055 1.412-8.18 2.225-12.358a482.163 482.163 0 012.568-12.305 519.53 519.53 0 012.716-11.591c.945-3.844 1.943-7.74 2.877-11.287a794.596 794.596 0 012.61-9.67 1566.953 1566.953 0 014.399-15.587c.638-2.22 1.36-4.727 2.083-7.235-2.13.459-4.26.918-6.609 1.42-2.348.501-4.912 1.045-7.578 1.602a812.02 812.02 0 01-8.733 1.776 698.57 698.57 0 01-10.924 2.073c-3.895.705-7.91 1.39-11.785 2.003a429.652 429.652 0 01-22.351 2.944c-3.524.369-6.832.668-10.613.947-3.78.28-8.027.54-12.297.73-4.27.19-8.644.315-10.81.377-2.167.062-13.288.062-15.315.007a777.055 777.055 0 01-10.16-.329 508.784 508.784 0 01-11.824-.618 443.796 443.796 0 01-9.67-.725c-2.824-.243-5.27-.48-6.495-.598-1.225-.118-1.224-.12-2.677-.287z" fill="none" stroke="#000" style="stroke-width:4.8;" stroke-linecap="round"/>
		</g>
		</svg>