<svg xmlns="http://www.w3.org/2000/svg" viewBox="-128 -128 1000 1000">
		<g fill="none" stroke="#000" stroke-linecap="round">
			<path class="j" d="M409.625 315.794c-10.915.03-24.73-1.644-31.743-5.593-7.013-3.949-7.222-10.174-3.756-13.026 3.466-2.851 10.606-2.329 14.044-4.893 3.439-2.564 3.174-8.214-2.461-12.728-5.636-4.515-16.641-7.892-27.553-8-10.913-.108-21.73 3.055-27.258 7.762-5.528 4.708-5.765 10.959-1.79 13.687 3.976 2.727 12.165 1.93 16.256 4.736 4.091 2.807 4.085 9.218-.335 13.113-4.42 3.895-13.252 5.275-22.125 5.098-8.873-.176-17.787-1.909-26.701-3.641-1.76 6.151-3.519 12.302-3.838 19.879-.319 7.578.802 16.582 4.476 21.189 3.674 4.606 9.899 4.816 13.025 1.693 3.127-3.122 3.153-9.574 6.13-12.531 2.976-2.956 8.9-2.417 13.139 3.701 4.24 6.117 6.792 17.81 6.35 29.617-.443 11.807-3.881 23.725-8.864 29.666-4.983 5.941-11.509 5.903-14.374 1.79-2.865-4.114-2.067-12.302-4.874-16.394-2.807-4.091-9.217-4.085-12.975 2.466-3.757 6.551-4.862 19.644-4.119 30.675.743 11.03 3.333 19.996 5.923 28.963 8.015 1.728 16.03 3.457 26.945 3.485 10.915.03 24.73-1.644 31.743-5.593 7.013-3.949 7.222-10.174 3.756-13.026-3.466-2.851-10.606-2.329-14.044-4.893-3.439-2.564-3.174-8.214 2.461-12.728 5.636-4.515 16.641-7.892 27.553-8 10.913-.108 21.73 3.055 27.258 7.762 5.528 4.708 5.765 10.959 1.79 13.687-3.976 2.727-12.165 1.93-16.256 4.736-4.091 2.807-4.085 9.218.335 13.113 4.42 3.895 13.252 5.275 22.125 5.098 8.873-.176 17.787-1.909 26.701-3.641-1.76-6.151-3.52-12.301-3.839-19.879-.319-7.578.802-16.581 4.476-21.188 3.674-4.607 9.899-4.817 13.025-1.694 3.127 3.122 3.153 9.574 6.13 12.531 2.976 2.956 8.901 2.417 13.14-3.701 4.239-6.117 6.792-17.81 6.349-29.617-.443-11.807-3.881-23.724-8.863-29.665-4.983-5.941-11.509-5.904-14.374-1.79-2.865 4.113-2.068 12.301-4.875 16.393-2.807 4.091-9.217 4.085-12.975-2.466-3.757-6.551-4.862-19.644-4.119-30.674.743-11.031 3.333-19.997 5.924-28.964-8.014 1.728-16.028 3.457-26.943 3.485z"></path>

			<path class="k animateme" d="M269.499 308.67c-8.873-.177-17.705 1.203-22.125 5.098-4.42 3.896-4.426 10.306-.335 13.113 4.091 2.807 12.28 2.009 16.256 4.737 3.975 2.727 3.738 8.978-1.79 13.686-5.528 4.707-16.345 7.87-27.257 7.762-10.913-.107-21.919-3.486-27.554-8-5.635-4.514-5.9-10.164-2.461-12.728 3.438-2.564 10.578-2.042 14.044-4.893 3.466-2.852 3.257-9.077-3.756-13.026s-20.828-5.621-30.675-6.184c-9.848-.563-15.726-.02-21.605.53 1.093 2.283 2.187 4.567 3.319 7.167 1.132 2.6 2.259 5.407 3.252 8.073a141.384 141.384 0 012.643 7.753 220.289 220.289 0 012.506 8.717 212.371 212.371 0 012.078 8.559 229.744 229.744 0 011.695 8.408 244.292 244.292 0 011.472 9.005c.465 3.208.907 6.679 1.264 9.889.357 3.211.629 6.161.85 9.038.222 2.877.394 5.682.528 8.707.135 3.025.231 6.269.278 9.265.05 2.996.04 5.743-.01 8.768-.06 3.025-.167 6.334-.296 9.143a241.06 241.06 0 01-.448 7.418 301.029 301.029 0 01-.59 6.807 525.82 525.82 0 01-.675 6.352c6.331-.834 12.661-1.669 19.457-1.396 6.796.272 14.053 1.651 17.687 5.547 3.634 3.896 3.64 10.306-.451 13.113-4.092 2.807-12.28 2.009-16.256 4.737-3.976 2.727-3.739 8.978 1.79 13.686 5.528 4.707 16.344 7.87 27.256 7.762 10.913-.107 21.918-3.485 27.554-8 5.636-4.514 5.9-10.163 2.462-12.728-3.439-2.564-10.578-2.042-14.044-4.893-3.467-2.852-3.257-9.077 1.789-11.61 5.046-2.533 14.927-1.372 23.875.07 8.949 1.445 16.962 3.173 24.976 4.901-2.59-8.967-5.18-17.933-5.923-28.963-.743-11.031.362-24.124 4.119-30.675 3.758-6.551 10.168-6.557 12.975-2.466 2.807 4.092 2.009 12.28 4.874 16.394 2.865 4.113 9.391 4.151 14.374-1.79 4.983-5.941 8.421-17.859 8.864-29.666.442-11.807-2.11-23.5-6.35-29.617-4.239-6.118-10.163-6.657-13.139-3.701-2.977 2.957-3.003 9.409-6.13 12.531-3.126 3.123-9.351 2.913-13.025-1.693-3.674-4.607-4.795-13.611-4.476-21.189.319-7.577 2.078-13.728 3.838-19.879-8.914-1.732-17.827-3.465-26.7-3.641z" data-from="0.024" data-to="0.016" data-translatex="350" data-translatey="50" data-when="span" style="transform: translate(350px, 50px);"></path>

			<path class="i animateme" d="M562.443 313.948c.04 1.467.125 4.339.247 7.337.122 2.998.279 5.999.439 8.588.161 2.588.323 4.765.529 7.139.205 2.374.453 4.946.737 7.535.283 2.588.595 5.132.945 7.698.35 2.566.723 5.03 1.196 7.787a220.85 220.85 0 001.727 8.983 183.19 183.19 0 002.346 9.677 141.744 141.744 0 002.801 9.093 103.535 103.535 0 002.918 7.498 69.791 69.791 0 002.863 5.858 60.888 60.888 0 003.026 4.938 46.462 46.462 0 003.362 4.373 57.692 57.692 0 003.811 3.978 29.691 29.691 0 003.217 2.66c1.084.774 2.352 1.595 3.704 2.47-8.652 1.716-17.302 3.432-28.379 6.228-11.078 2.796-24.577 6.67-31.433 11.72-6.856 5.051-7.065 11.276-3.599 14.128 3.466 2.851 10.606 2.329 14.044 4.893 3.439 2.564 3.174 8.213-2.303 14.065-5.478 5.852-16.169 11.905-28.026 13.744-11.857 1.839-24.876-.538-31.505-4.852-6.63-4.314-6.867-10.565-2.891-13.292 3.976-2.728 12.164-1.93 16.255-4.738 4.091-2.807 4.085-9.216-2.46-12.089-6.545-2.873-19.624-2.207-30.621-1.008-10.997 1.199-19.91 2.932-28.824 4.664-1.76-6.151-3.52-12.301-3.839-19.879-.319-7.578.802-16.581 4.476-21.188 3.674-4.607 9.899-4.817 13.025-1.694 3.127 3.122 3.153 9.574 6.13 12.531 2.976 2.956 8.901 2.417 13.14-3.701 4.239-6.117 6.792-17.81 6.349-29.617-.443-11.807-3.881-23.724-8.863-29.665-4.983-5.941-11.509-5.904-14.374-1.79-2.865 4.113-2.068 12.301-4.875 16.393-2.807 4.091-9.217 4.085-12.975-2.466-3.757-6.551-4.862-19.644-4.119-30.674.743-11.031 3.333-19.997 5.924-28.964 8.015-1.728 16.029-3.457 26.277-4.597 10.248-1.141 22.727-1.694 29.073 1.142 6.345 2.836 6.555 9.061 3.088 11.913-3.466 2.852-10.605 2.33-14.044 4.894-3.438 2.564-3.174 8.213 2.462 12.728 5.635 4.514 16.64 7.892 27.553 8 10.913.108 21.729-3.055 27.257-7.763 5.529-4.708 5.766-10.958 1.79-13.685-3.976-2.728-12.164-1.93-16.256-4.738-4.091-2.807-4.085-9.216.336-13.112 4.42-3.896 13.251-5.275 20.36-5.321 7.109-.05 12.494 1.24 17.879 2.527l.05 6.821c.01 1.364 0 1.364.05 2.83z" data-from="0.033" data-to="0.024" data-translatex="-350" data-translatey="250" data-when="span" style="transform: translate(-350px, 250px);"></path>

			<path class="l animateme" d="M301.154 540.899c-4.072-5.109-10.296-5.319-13.423-2.196-3.127 3.122-3.153 9.573-6.13 12.53-2.976 2.957-8.901 2.418-13.14-3.7-4.239-6.117-6.791-17.81-6.506-28.516.286-10.706 3.409-20.42 8.234-25.259 4.826-4.839 11.352-4.802 14.217-.688 2.864 4.113 2.067 12.3 4.874 16.392 2.807 4.092 9.217 4.086 12.267-1.521 3.049-5.607 2.738-16.812 1.287-26.898-1.451-10.087-4.041-19.053-6.631-28.02-8.015-1.728-16.03-3.457-24.979-4.901-8.948-1.444-18.829-2.605-23.875-.07-5.046 2.533-5.256 8.758-1.789 11.61 3.466 2.851 10.605 2.329 14.044 4.893 3.438 2.565 3.174 8.214-2.462 12.728-5.636 4.515-16.641 7.893-27.554 8-10.912.108-21.728-3.055-27.256-7.762-5.529-4.708-5.766-10.959-1.79-13.686 3.976-2.728 12.164-1.93 16.256-4.737 4.091-2.807 4.085-9.217.451-13.113-3.634-3.896-10.891-5.275-17.687-5.547-6.796-.273-13.127.562-19.459 1.396a536.287 536.287 0 01-1.063 7.629 303.936 303.936 0 01-2.723 15.487 215.069 215.069 0 01-1.362 6.268 270.177 270.177 0 01-1.717 6.977 242.003 242.003 0 01-4.362 14.837 183.932 183.932 0 01-2.275 6.513 198.695 198.695 0 01-2.552 6.542 160.459 160.459 0 01-2.76 6.326 138.952 138.952 0 01-3.096 6.289c-1.116 2.13-2.33 4.305-3.544 6.481 6.79 4.595 13.579 9.19 17.815 14.918 4.237 5.729 5.919 12.588 4.584 18.247-1.336 5.659-5.689 10.114-10.145 9.581-4.457-.532-9.016-6.052-13.246-6.763-4.229-.712-8.129 3.386-7.494 10.578.635 7.193 5.804 17.48 13.271 25.438 7.467 7.959 17.231 13.587 24.454 14.326 7.223.738 11.903-3.412 11.125-8.17-.778-4.758-7.016-10.123-7.817-15.019-.801-4.897 3.835-9.323 9.076-9.943 5.241-.619 11.086 2.571 15.621 6.931 4.536 4.361 7.763 9.894 10.99 15.426 1.855-1.652 3.71-3.303 5.722-4.911a87.028 87.028 0 016.426-4.651 107.08 107.08 0 017.162-4.307 142.227 142.227 0 017.991-4.063 153.967 153.967 0 018.3-3.601 200.463 200.463 0 018.686-3.236 175.798 175.798 0 018.44-2.692c2.971-.87 6.268-1.764 9.294-2.525a220.008 220.008 0 0116.128-3.418c2.603-.452 5.315-.877 8.027-1.303-1.917-10.008-3.834-20.016-7.905-25.125z" data-from="0.038" data-to="0.027" data-translatex="200" data-translatey="150" data-when="span" style="transform: translate(200px, 150px);"></path>

			<path class="n animateme" d="M613.728 547.896c.855-4.51 1.71-9.019 1.34-14.912-.369-5.892-1.962-13.163-5.872-16.905-3.91-3.741-10.135-3.951-13.261-.828-3.127 3.122-3.153 9.574-6.13 12.531-2.976 2.956-8.9 2.417-13.139-3.701-4.24-6.117-6.792-17.81-6.349-29.617.442-11.807 3.88-23.725 8.863-29.666 4.983-5.941 11.509-5.903 14.374-1.79 2.865 4.114 2.067 12.302 4.874 16.393 2.807 4.091 9.217 4.085 12.975-2.466 3.758-6.551 4.862-19.644 4.608-29.668-.253-10.024-1.865-16.98-3.477-23.935-1.087.02-2.173.03-3.213-.01a24.048 24.048 0 01-3.104-.324 29.995 29.995 0 01-3.381-.774 31.124 31.124 0 01-3.372-1.194c-1.09-.457-2.121-.962-3.153-1.468-8.652 1.716-17.302 3.431-28.379 6.226-11.078 2.796-24.577 6.67-31.433 11.72-6.856 5.05-7.065 11.275-3.599 14.127 3.466 2.851 10.606 2.329 14.044 4.893 3.439 2.564 3.174 8.214-2.303 14.066-5.478 5.852-16.169 11.905-28.026 13.744-11.857 1.838-24.876-.538-31.505-4.852-6.63-4.314-6.867-10.565-2.891-13.293 3.976-2.728 12.164-1.93 16.255-4.738 4.091-2.807 4.085-9.215-2.46-12.088-6.545-2.873-19.624-2.207-30.621-1.008-10.997 1.199-19.91 2.932-28.824 4.664 1.76 6.151 3.519 12.301 3.838 19.879.319 7.578-.802 16.581-4.476 21.188-3.674 4.607-9.898 4.817-13.025 1.694-3.127-3.122-3.153-9.575-6.13-12.531-2.976-2.956-8.9-2.417-13.139 3.701-4.24 6.117-6.792 17.81-6.35 29.617.443 11.807 3.881 23.725 8.864 29.666 4.983 5.94 11.509 5.903 14.374 1.789 2.865-4.113 2.067-12.301 4.874-16.393 2.807-4.091 9.217-4.085 12.975 2.466 3.757 6.551 4.862 19.644 4.644 29.848-.217 10.204-1.756 17.519-3.295 24.833 1.461 1.017 2.922 2.033 4.282 3.042a69.1 69.1 0 013.9 3.105c1.278 1.097 2.574 2.289 3.87 3.482 9.851-.655 19.703-1.309 29.105-.925 9.401.384 18.352 1.806 22.932 5.631 4.58 3.824 4.79 10.049 1.323 12.901-3.466 2.851-10.606 2.329-14.044 4.893-3.438 2.564-3.174 8.214 2.462 12.728 5.635 4.514 16.64 7.892 27.552 8 10.913.108 21.73-3.055 27.258-7.762 5.529-4.708 5.766-10.959 1.79-13.687-3.976-2.727-12.164-1.93-16.256-4.736-4.091-2.807-4.085-9.217.335-13.113 4.42-3.895 13.252-5.275 20.74-5.359 7.489-.08 13.634 1.128 19.779 2.34.213-1.04.425-2.08.681-3.249.256-1.168.555-2.466.848-3.665.293-1.198.579-2.299.863-3.337a105.626 105.626 0 011.994-6.471c.411-1.194.863-2.438 1.324-3.625.46-1.187.937-2.34 1.173-2.911.236-.57 1.712-3.72 2.016-4.288.304-.568.913-1.705 1.554-2.816a56.5 56.5 0 012.02-3.243 45.69 45.69 0 012.207-3.016 43.623 43.623 0 012.597-2.975 41.634 41.634 0 013.04-2.874 44.644 44.644 0 013.339-2.585 35.418 35.418 0 013.219-2.01 43.429 43.429 0 013.356-1.67 54.404 54.404 0 012.555-1.049c.496-.191 2.953-.932 3.493-1.05l2.698-.59" data-from="0.049" data-to="0.042" data-translatex="-400" data-translatey="-300" data-when="span" style="transform: translate(-400px, -300px);"></path>

			<path class="g animateme" d="M440.633 192.131c.09 6.918-1.029 15.922-4.703 20.529-3.674 4.606-9.898 4.816-13.025 1.693-3.127-3.122-3.153-9.574-6.13-12.531-2.976-2.956-8.9-2.417-13.139 3.701-4.24 6.117-6.792 17.81-6.35 29.617.443 11.807 3.881 23.725 8.864 29.666 4.983 5.941 11.509 5.903 14.374 1.79 2.865-4.114 2.067-12.302 4.874-16.394 2.807-4.091 9.217-4.085 12.975 2.466 3.757 6.551 4.862 19.644 4.119 30.675-.743 11.03-3.333 19.996-5.923 28.963-8.015 1.728-16.03 3.457-26.945 3.485-10.915.03-24.73-1.644-31.743-5.593-7.013-3.949-7.222-10.174-3.756-13.026 3.466-2.851 10.606-2.329 14.044-4.893 3.439-2.564 3.174-8.214-2.461-12.728-5.636-4.515-16.641-7.892-27.553-8-10.913-.108-21.73 3.055-27.258 7.762-5.528 4.708-5.765 10.959-1.79 13.687 3.976 2.727 12.165 1.93 16.256 4.736 4.091 2.807 4.085 9.218-.335 13.113-4.42 3.895-13.252 5.275-22.125 5.098-8.873-.176-17.787-1.909-26.701-3.641 1.76-6.151 3.52-12.301 4.119-19.486.599-7.184.04-15.4-3.358-19.614-3.394-4.214-9.617-4.424-12.744-1.301-3.128 3.123-3.154 9.573-6.131 12.53-2.977 2.957-8.9 2.418-13.14-3.7s-6.791-17.809-5.03-29.842c1.761-12.033 7.835-24.399 14.136-30.565 6.302-6.166 12.828-6.129 15.693-2.015 2.864 4.114 2.067 12.301 4.874 16.393 2.807 4.091 9.217 4.085 17.417-5.624 8.2-9.709 18.188-29.117 24.073-43.763 5.885-14.645 7.667-24.525 9.448-34.405.98.665 1.959 1.33 3.065 2.03a81.993 81.993 0 003.52 2.097 72.308 72.308 0 003.628 1.904c1.268.622 2.7 1.287 3.416 1.619.716.333 6.026 2.493 7.16 2.891 1.135.399 3.403 1.195 5.707 1.947 2.305.752 4.646 1.459 7.298 2.195 2.653.735 5.606 1.497 8.552 2.199 2.947.703 5.864 1.34 8.806 1.935a325.398 325.398 0 0016.796 2.933c2.714.402 5.536.788 8.4 1.149 2.864.36 5.77.695 8.447.979 2.677.285 5.125.521 7.573.756 1.307 4.832 2.613 9.664 2.706 16.583z" data-from="0.057" data-to="0.044" data-translatex="-300" data-translatey="200" data-when="span" style="transform: translate(-300px, 200px);"></path>

			<path class="m animateme" d="M440.406 472.902c.319 7.578-.802 16.581-4.476 21.188-3.674 4.607-9.898 4.817-13.025 1.694-3.127-3.122-3.153-9.574-6.13-12.531-2.976-2.956-8.9-2.417-13.139 3.701-4.24 6.117-6.792 17.81-6.35 29.617.443 11.807 3.881 23.725 8.864 29.666 4.983 5.94 11.509 5.903 14.374 1.789 2.865-4.113 2.067-12.301 4.874-16.393 2.807-4.091 9.217-4.085 12.975 2.466 3.757 6.551 4.862 19.644 4.644 29.848-.217 10.204-1.756 17.519-3.295 24.833-2.557-1.513-5.113-3.025-7.578-4.372a176.905 176.905 0 00-6.027-3.117c-1.187-.59-8.348-3.65-9.971-4.236-1.623-.586-4.924-1.778-8.297-2.878a197.718 197.718 0 00-21.144-5.606 226.475 226.475 0 00-11.311-2.043 218.162 218.162 0 00-11.721-1.487 259.107 259.107 0 00-12.061-.911 202.289 202.289 0 00-10.53-.276c-3.368 0-6.675.07-9.669.188-2.994.116-5.487.27-7.914.454-2.427.184-4.664.391-7.038.649-2.374.259-4.888.569-7.401.879-1.917-10.011-3.834-20.016-7.905-25.125-4.072-5.109-10.296-5.319-13.423-2.196-3.127 3.122-3.153 9.573-6.13 12.53-2.976 2.957-8.901 2.418-13.14-3.7-4.239-6.117-6.791-17.81-6.506-28.516.286-10.706 3.409-20.42 8.234-25.259 4.826-4.839 11.352-4.802 14.217-.688 2.864 4.113 2.067 12.3 4.874 16.392 2.807 4.092 9.217 4.086 12.267-1.521 3.049-5.607 2.738-16.812 1.287-26.898-1.451-10.087-4.041-19.053-6.632-28.02 8.014 1.728 16.028 3.457 26.943 3.485 10.915.03 24.73-1.644 31.743-5.593 7.013-3.949 7.222-10.174 3.756-13.026-3.466-2.851-10.606-2.329-14.044-4.893-3.439-2.564-3.174-8.214 2.461-12.728 5.636-4.515 16.641-7.892 27.553-8 10.913-.108 21.73 3.055 27.258 7.762 5.528 4.708 5.765 10.959 1.79 13.687-3.976 2.727-12.165 1.93-16.256 4.736-4.091 2.807-4.085 9.218.335 13.113 4.42 3.895 13.252 5.275 22.125 5.098 8.873-.176 17.787-1.909 26.701-3.641 1.76 6.151 3.519 12.301 3.838 19.879z" data-from="0.069" data-to="0.059" data-translatex="-300" data-translatey="-500" data-when="span" style="transform: translate(-300px, -500px);"></path>
			
			<path class="f animateme" d="M341.728 147.795c-1.267-1.102-2.518-2.297-3.144-2.894-.626-.597-4.118-4.797-4.441-5.287a45.875 45.875 0 01-1.687-2.734c-.7-1.24-1.446-2.727-2.192-4.214-6.322.753-12.642 1.505-19.319 3.311-6.676 1.806-13.705 4.665-17.045 8.718-3.34 4.053-2.99 9.299.756 11.661 3.746 2.362 10.886 1.84 14.324 4.404 3.438 2.564 3.174 8.214-2.462 12.728-5.635 4.514-16.64 7.892-27.553 8-10.912.108-21.728-3.054-27.257-7.762s-5.766-10.959-1.79-13.686c3.976-2.728 12.164-1.93 15.976-4.248 3.812-2.317 3.246-7.748.08-11.705s-8.93-6.437-14.802-7.889c-5.873-1.451-11.854-1.874-17.835-2.296-.412 1.836-.825 3.672-1.406 5.535a40.614 40.614 0 01-2.074 5.302 34.458 34.458 0 01-2.638 4.619 41.698 41.698 0 01-3.546 4.535 46.046 46.046 0 01-4.377 4.246 49.78 49.78 0 01-4.605 3.463 55.293 55.293 0 01-4.574 2.741 68.893 68.893 0 01-5.018 2.449 93.527 93.527 0 01-5.909 2.365 108.62 108.62 0 01-6.339 2.074 140.439 140.439 0 01-6.235 1.673c-1.901.465-3.525.82-5.422 1.193a186.55 186.55 0 01-6.537 1.158c-2.352.374-4.827.719-7.302 1.065.849 5.338 1.699 10.675 1.396 16.901-.303 6.226-1.759 13.338-5.599 16.999-3.841 3.661-10.066 3.871-13.192.748-3.127-3.122-3.153-9.574-6.13-12.531-2.976-2.956-8.9-2.417-13.251 2.699-4.35 5.116-7.126 14.807-6.794 25.613.331 10.805 3.77 22.723 8.753 28.664 4.983 5.941 11.508 5.903 14.373 1.79 2.865-4.114 2.067-12.302 4.875-16.394 2.807-4.091 9.216-4.085 13.085 3.468 3.87 7.553 5.196 22.647 3.766 33.65-1.43 11.002-5.616 17.909-9.803 24.816.398.663.795 1.326 1.169 1.968.375.641.725 1.26 1.095 1.931.369.671.757 1.394 1.145 2.118 5.879-.546 11.757-1.093 21.605-.53 9.847.563 23.662 2.235 30.675 6.184 7.013 3.949 7.222 10.174 3.756 13.026-3.466 2.851-10.606 2.329-14.044 4.893-3.439 2.564-3.174 8.214 2.461 12.728 5.635 4.514 16.641 7.893 27.554 8 10.912.108 21.729-3.055 27.257-7.762 5.528-4.708 5.765-10.959 1.79-13.686-3.976-2.728-12.165-1.93-16.256-4.737-4.091-2.807-4.085-9.217.335-13.113 4.42-3.895 13.252-5.275 22.125-5.098 8.873.176 17.786 1.909 26.7 3.641 1.76-6.151 3.52-12.301 4.119-19.486.599-7.184.04-15.4-3.358-19.614-3.394-4.214-9.617-4.424-12.744-1.301-3.128 3.123-3.154 9.573-6.131 12.53-2.977 2.957-8.9 2.418-13.14-3.7s-6.791-17.809-5.03-29.842c1.761-12.033 7.835-24.399 14.136-30.565 6.302-6.166 12.828-6.129 15.693-2.015 2.864 4.114 2.067 12.301 4.874 16.393 2.807 4.091 9.217 4.085 17.417-5.624 8.2-9.709 18.188-29.117 24.073-43.763 5.885-14.645 7.667-24.525 9.448-34.405-1.282-1.009-2.563-2.018-3.831-3.119z" data-from="0.077" data-to="0.063" data-translatex="380" data-translatey="-50" data-when="span" style="transform: translate(380px, -50px);"></path>

			<path class="r animateme" d="M554.972 596.984c-7.488.08-16.32 1.464-20.74 5.359-4.42 3.896-4.426 10.306-.335 13.113 4.092 2.806 12.28 2.009 16.256 4.736 3.976 2.728 3.739 8.979-1.79 13.687-5.528 4.707-16.345 7.87-27.258 7.762-10.912-.108-21.917-3.486-27.552-8-5.636-4.514-5.9-10.164-2.462-12.728s10.578-2.042 14.044-4.893c3.467-2.852 3.257-9.077-1.323-12.901-4.58-3.825-13.531-5.247-22.932-5.631-9.402-.384-19.254.27-29.105.925 1.666 1.898 3.448 3.928 4.984 5.937a45.203 45.203 0 014.069 6.292c1.218 2.28 2.337 4.845 3.146 7.297.808 2.452 1.314 4.808 1.553 7.2.239 2.392.213 4.82-.127 7.204a26.846 26.846 0 01-1.886 6.787 25.848 25.848 0 01-3.179 5.451 21.577 21.577 0 01-3.623 3.74c-1.297 1.057-2.72 2.004-4.143 2.952.06 5.16.11 10.32 1.145 15.577 1.034 5.256 3.048 10.608 7.253 13.056 4.206 2.449 10.599 1.992 13.102-2.291 2.504-4.284 1.117-12.392 3.55-16.555 2.433-4.164 8.684-4.378 13.779.795 5.095 5.174 9.031 15.733 9.713 26.625.681 10.892-1.892 22.112-5.987 28.059-4.095 5.947-9.711 6.619-12.518 3.375-2.807-3.244-2.803-10.402-5.899-13.653-3.096-3.251-9.289-2.593-13.42 1.261s-6.198 10.9-6.351 17.074c-.154 6.174 1.606 11.472 3.366 16.771 7.375.07 14.749.145 20.647.07a265.56 265.56 0 0014.329-.539c4.014-.254 7.622-.551 11.59-.939 3.968-.389 8.208-.86 12.437-1.382 4.229-.522 8.27-1.076 12.36-1.679a685.19 685.19 0 0012.562-1.976 957.372 957.372 0 0013.841-2.414c4.978-.903 10.405-1.918 15.291-2.847 4.886-.928 9.231-1.769 13.577-2.61-.605-2.12-1.21-4.24-1.892-6.656a1083.97 1083.97 0 01-2.146-7.697 557.742 557.742 0 01-1.984-7.411 381.692 381.692 0 01-1.887-7.55 395.016 395.016 0 01-1.959-8.621 270.456 270.456 0 01-1.607-8.038 255.077 255.077 0 01-1.353-8.06c-.419-2.773-.81-5.679-1.17-8.881a281.764 281.764 0 01-.922-9.836 205.985 205.985 0 01-.476-8.654 233.53 233.53 0 01-.143-8.259c0-2.682.05-5.246.144-7.964.1-2.717.253-5.587.407-7.914.153-2.328.307-4.112.493-5.966.186-1.855.406-3.78.515-4.742.11-.962 1.034-7.241 1.161-7.948l.634-3.534c-6.145-1.212-12.29-2.423-19.779-2.34z" data-from="0.093" data-to="0.082" data-translatex="-200" data-translatey="-700" data-when="span" style="transform: translate(-200px, -700px);"></path>

			<path class="t animateme" d="M222.883 600.731c-3.227-5.533-6.454-11.065-10.99-15.426-4.535-4.36-10.38-7.55-15.621-6.931-5.241.62-9.877 5.046-9.076 9.943.801 4.896 7.039 10.261 7.817 15.019.778 4.758-3.902 8.908-11.125 8.17-7.223-.739-16.987-6.367-24.454-14.326-7.467-7.958-12.636-18.245-13.271-25.438-.635-7.192 3.265-11.29 7.494-10.578 4.23.711 8.789 6.231 13.246 6.763 4.456.533 8.809-3.922 10.145-9.581 1.335-5.659-.347-12.518-4.584-18.247-4.236-5.728-11.025-10.323-17.815-14.918-1.487 2.272-2.975 4.545-4.457 6.619a76.375 76.375 0 01-4.601 5.835 71.179 71.179 0 01-4.941 5.112 54.27 54.27 0 01-4.822 4.018 53.351 53.351 0 01-4.873 3.205 70.698 70.698 0 01-3.914 2.084c-.771.386-6.528 2.369-7.248 2.511-.72.142-2.159.425-3.75.615a39.614 39.614 0 01-4.881.27c-1.547-.01-2.898-.14-4.25-.265-8.451 4.041-16.902 8.081-24.736 13.892-7.835 5.81-15.05 13.39-16.676 19.699-1.625 6.309 2.341 11.345 7.292 11.013 4.951-.331 10.884-6.03 15.888-6.329 5.003-.3 9.076 4.799 7.499 12.392-1.577 7.592-8.801 17.673-17.794 25.335-8.994 7.663-19.754 12.903-27.183 13.366-7.428.462-11.522-3.854-11.045-8.022.477-4.168 5.525-8.186 6.039-12.575.515-4.388-3.506-9.145-9.494-9.603-5.987-.458-13.939 3.384-19.785 7.901-5.846 4.518-9.583 9.71-13.321 14.902a815.788 815.788 0 001.647 10.509 378.73 378.73 0 001.932 10.726 506.121 506.121 0 002.564 12.337 557.002 557.002 0 002.936 12.589 667.92 667.92 0 003.088 12.078c1.062 4.001 2.215 8.215 3.29 12.075 1.075 3.861 2.095 7.45 3.015 10.669.92 3.218 1.74 6.065 2.561 8.912 2.641.568 5.282 1.135 8.269 1.77 2.988.634 6.324 1.336 9.587 2.005 3.263.67 6.454 1.307 9.632 1.919 3.179.612 6.347 1.198 9.878 1.811 3.532.612 7.428 1.252 10.959 1.793 3.531.541 6.697.985 9.83 1.388 3.134.402 6.234.765 9.481 1.102 3.247.337 6.641.648 10.035.96 6.618-5.769 13.237-11.538 19.287-18.227 6.051-6.688 11.534-14.295 12.383-20.688.849-6.392-2.935-11.566-7.894-11.411-4.959.154-11.092 5.638-15.911 5.788-4.819.151-8.323-5.031-6.647-12.096 1.676-7.065 8.531-16.01 17.397-22.374 8.865-6.364 19.738-10.144 26.952-9.835 7.214.31 10.767 4.711 9.51 8.811-1.258 4.101-7.325 7.9-8.435 12.249-1.11 4.349 2.738 9.246 10.729 8.286 7.991-.96 20.122-7.778 29.899-15.038 9.777-7.26 17.199-14.962 24.621-22.663-.782-1.253-1.565-2.506-2.234-3.902a23.8 23.8 0 01-1.601-4.45 24.397 24.397 0 01-.687-4.625c-.08-1.529-.02-3.035.202-4.709.226-1.673.62-3.514.818-4.435.197-.92 2.174-5.966 2.755-6.967.581-1.001 1.743-3.003 2.889-4.736a48.487 48.487 0 013.365-4.494c1.088-1.296 2.137-2.424 3.185-3.552" data-from="0.11" data-to="0.093" data-translatex="800" data-translatey="-200" data-when="span" style="transform: translate(800px, -200px);"></path>

			<path class="s animateme" d="M447.314 653.501c-1.9.712-4.026 1.378-6.547 2.028-2.52.651-5.436 1.285-8.204 1.826-2.767.541-5.385.987-8.589 1.529-3.203.542-6.992 1.18-10.346 1.82-3.353.639-6.273 1.281-8.964 2-2.691.719-5.154 1.515-7.713 2.635-2.559 1.12-5.212 2.563-7.642 4.471a27.788 27.788 0 00-6.394 7.083c-1.756 2.802-3.06 6.031-3.804 9.225-.743 3.194-.925 6.351-.745 9.264.18 2.912.722 5.58 1.607 8.252a38.195 38.195 0 003.69 7.928c1.58 2.578 3.512 5.058 5.372 7.072 1.861 2.014 3.65 3.561 5.857 5.144 2.207 1.583 4.832 3.203 7.453 4.6 2.62 1.396 5.237 2.571 8.409 3.761 3.172 1.191 6.9 2.399 10.743 3.442a156.486 156.486 0 0011.354 2.604c3.552.682 6.698 1.165 9.736 1.562 3.038.398 5.966.71 8.901.966 2.935.255 5.875.455 8.816.654-1.76-5.299-3.52-10.597-3.366-16.771.153-6.173 2.22-13.22 6.351-17.074 4.131-3.854 10.326-4.512 13.421-1.261 3.095 3.251 3.091 10.41 5.898 13.653 2.807 3.244 8.424 2.572 12.518-3.375 4.095-5.946 6.668-17.167 5.987-28.059-.681-10.891-4.618-21.451-9.712-26.625-5.095-5.173-11.347-4.959-13.78-.796-2.433 4.163-1.046 12.273-3.55 16.556-2.503 4.283-8.897 4.74-13.102 2.293-4.205-2.448-6.219-7.801-7.254-13.057-1.035-5.257-1.09-10.418-1.146-15.578-1.677.758-3.354 1.517-5.255 2.228z" data-from="0.126" data-to="0.106" data-translatex="330" data-translatey="-650" data-when="span" style="transform: translate(330px, -650px);"></path>

			<path class="e animateme" d="M156.259 298.915a67.918 67.918 0 00-2.624-3.497 55.308 55.308 0 00-2.877-3.318 62.6 62.6 0 00-3.622-3.564 52.072 52.072 0 00-3.873-3.181 42.733 42.733 0 00-3.907-2.591 41.235 41.235 0 00-4.26-2.181 39.362 39.362 0 00-4.569-1.677 31.844 31.844 0 00-8.609-1.336 25.83 25.83 0 00-3.806.214 27.405 27.405 0 00-3.779.77 25.449 25.449 0 00-3.536 1.281 21.478 21.478 0 00-3.144 1.733 27.67 27.67 0 00-2.96 2.281 22.303 22.303 0 00-2.276 2.347 29.678 29.678 0 00-1.905 2.548c-.593.885-1.159 1.825-1.725 2.764-6.361.12-12.72.241-17.625-.804-4.906-1.045-8.354-3.255-9.717-7.546-1.364-4.292-.641-10.661 3.743-12.985 4.384-2.323 12.428-.6 16.84-2.977 4.412-2.378 5.192-8.858-.143-14.483-5.334-5.626-16.785-10.398-27.672-12.083-10.888-1.684-21.213-.281-26.982 3.335-5.77 3.615-6.98 9.438-4.38 12.732 2.6 3.293 9.003 4.054 11.75 7.517s1.832 9.62-1.535 13.433c-3.366 3.813-9.179 5.276-15.044 4.784-5.864-.492-11.775-2.939-17.686-5.387l-.408-4.152c-.08-.83-.532-7.205-.582-8.51-.05-1.306-.151-3.917-.208-6.44-.06-2.523-.07-4.957-.04-7.426.03-2.468.09-4.97.188-7.37.1-2.399.228-4.695.418-7.225.19-2.529.444-5.354.807-8.54a534.29 534.29 0 011.091-8.721c.237-1.805 1.974-11.753 2.252-13.089.279-1.335.836-4.007 1.501-6.969a479.047 479.047 0 012.068-8.795 339.94 339.94 0 011.685-6.603 772.807 772.807 0 013.568-12.971c.624-2.204 1.29-4.541 1.957-6.879 4.975.961 9.951 1.923 15.311 2.937 5.361 1.013 11.108 2.08 16.415 3.028a864.137 864.137 0 0015.084 2.566c4.787.769 9.433 1.465 14.182 2.114 4.75.649 9.48 1.234 11.876 1.53 2.396.297 17.159 1.629 18.816 1.723 1.657.1 4.972.283 8.285.421 3.312.138 6.623.225 10.178.251 3.555.02 7.354-.01 11.058-.119a253.38 253.38 0 0010.892-.551c3.571-.26 7.1-.597 10.629-.934.849 5.338 1.699 10.675 1.396 16.901-.303 6.226-1.759 13.338-5.599 16.999-3.841 3.661-10.066 3.871-13.192.748-3.127-3.122-3.153-9.574-6.13-12.531-2.976-2.956-8.9-2.417-13.251 2.699-4.35 5.116-7.126 14.807-6.794 25.613.331 10.805 3.77 22.723 8.753 28.664 4.983 5.941 11.508 5.903 14.373 1.79 2.865-4.114 2.067-12.302 4.875-16.394 2.807-4.091 9.216-4.085 13.085 3.468 3.87 7.553 5.196 22.647 3.766 33.65-1.43 11.002-5.616 17.909-9.803 24.816-.856-1.3-1.712-2.6-2.575-3.828z" data-from="0.133" data-to="0.116" data-translatex="-220" data-translatey="290" data-when="span" style="transform: translate(-220px, 290px);"></path>

			<path class="p animateme" d="M718.577 411.76c-5.763.416-11.449 2.526-14.572 6.683-3.123 4.157-3.683 10.361-.742 13.658 2.941 3.297 9.381 3.687 12.166 6.825 2.784 3.138 1.912 9.023-4.434 12.911s-18.165 5.779-29.928 4.672c-11.763-1.107-23.469-5.211-29.12-10.52-5.651-5.309-5.247-11.823-.978-14.452 4.268-2.629 12.399-1.372 16.642-3.944 4.243-2.571 4.597-8.972 1.905-13.652-2.692-4.681-8.429-7.639-14.786-8.459-6.358-.821-13.333.496-20.309 1.814-.545 1.044-1.09 2.087-1.674 3.073a26.537 26.537 0 01-1.957 2.88 29.725 29.725 0 01-2.554 2.868 25.436 25.436 0 01-5.812 4.277 24.99 24.99 0 01-3.042 1.373 22.662 22.662 0 01-3.172.93c-1.141.248-2.408.442-3.676.635 1.612 6.955 3.223 13.911 3.477 23.936.254 10.024-.85 23.117-4.608 29.668-3.758 6.551-10.168 6.557-12.975 2.466-2.807-4.092-2.009-12.28-4.874-16.393-2.865-4.114-9.391-4.151-14.374 1.789-4.982 5.941-8.421 17.859-8.863 29.666-.443 11.807 2.109 23.5 6.349 29.617 4.239 6.118 10.163 6.657 13.139 3.701 2.977-2.957 3.003-9.409 6.13-12.531 3.126-3.123 9.351-2.913 13.261.828 3.91 3.742 5.503 11.013 5.872 16.905.37 5.893-.485 10.402-1.34 14.912 1.017-.134 1.972-.26 3.194-.348a43.067 43.067 0 013.953-.105c1.337.03 2.585.13 3.929.33 1.345.199 2.845.509 4.139.851 1.294.341 2.412.722 3.586 1.214a33.904 33.904 0 013.486 1.706 26.586 26.586 0 015.297 3.931 23.071 23.071 0 011.985 2.142c.669.813 1.389 1.777 2.11 2.741 8.115-3.243 16.229-6.486 20.329-11.223 4.101-4.736 4.187-10.964.665-13.746-3.522-2.782-10.65-2.119-14.138-4.614-3.488-2.496-3.336-8.151 2.209-12.775 5.545-4.625 16.482-8.22 27.39-8.543 10.908-.324 21.786 2.625 27.406 7.222 5.619 4.597 5.981 10.842 2.059 13.648-3.922 2.806-12.124 2.17-16.159 5.057-4.035 2.887-3.901 9.296-.733 13.067 3.169 3.772 9.372 4.904 16.913 4.516 7.541-.387 16.418-2.296 25.296-4.204.514-2.138 1.029-4.277 1.506-6.396.478-2.118.919-4.217 1.318-6.237.399-2.019.755-3.96 1.165-6.441.41-2.481.874-5.504 1.26-8.29.386-2.785.694-5.336.985-8.1.29-2.763.545-5.564.769-8.557.224-2.993.408-6.09.539-8.965.131-2.874.209-5.528.248-6.854.04-1.326.04-10.581 0-12.039-.05-1.459-.141-4.376-.276-7.244a301.56 301.56 0 00-.507-8.276c-.194-2.59-.405-4.95-.678-7.557a335.311 335.311 0 00-.953-8.124c-.349-2.685-.69-5.041-1.105-7.64a328.609 328.609 0 00-1.345-7.802c-.459-2.48-.897-4.664-1.286-6.519a217.114 217.114 0 00-1.091-4.94 555.126 555.126 0 00-1.165-4.876c-5.84-1.28-11.68-2.561-17.443-2.146z" data-from="0.154" data-to="0.145" data-translatex="-850" data-translatey="-500" data-when="span" style="transform: translate(-850px, -500px);"></path>

			<path class="o animateme" d="M636.174 402.904c.193-.591.58-1.774.955-3.044s.738-2.627 1.103-4.136c.365-1.509.737-3.201 1.081-4.896.344-1.694.672-3.454 1.004-5.325.332-1.87.666-3.85.834-4.84.167-.991 1.232-7.291 1.386-8.119.155-.827.471-2.525.843-4.323.371-1.798.813-3.781 1.245-5.524a68.784 68.784 0 011.362-4.82 62.357 62.357 0 011.712-4.668 37.823 37.823 0 011.928-4.008 29.436 29.436 0 012.263-3.475 27.47 27.47 0 012.863-3.218 29.146 29.146 0 013.365-2.768 23.33 23.33 0 013.371-1.981 26.822 26.822 0 013.819-1.5 30.971 30.971 0 014.274-.986 29.955 29.955 0 014.128-.351c1.307-.02 2.602.04 3.952.192 1.35.15 2.755.388 4.499.842a50.494 50.494 0 015.696 1.872 40.274 40.274 0 015.277 2.55 51.611 51.611 0 015.059 3.311 57.78 57.78 0 014.815 4.001c1.555 1.439 3.077 3 4.414 4.484a65.922 65.922 0 013.657 4.429 85.525 85.525 0 013.617 5.164c1.27 1.956 2.63 4.198 3.812 6.271a116.45 116.45 0 013.139 5.884c.98 1.961 1.906 3.928 2.369 4.911.463.983 3.721 8.813 4.074 9.764l1.417 3.826c.346.933 2.626 7.752 2.977 8.927.35 1.174 1.056 3.537 1.702 5.819.646 2.282 1.229 4.469 1.834 6.737-5.839-1.28-11.677-2.561-17.44-2.146-5.763.416-11.449 2.526-14.572 6.683-3.123 4.157-3.683 10.361-.742 13.658 2.941 3.297 9.381 3.687 12.166 6.825 2.784 3.138 1.912 9.023-4.434 12.911s-18.165 5.779-29.928 4.672c-11.763-1.107-23.469-5.211-29.12-10.52-5.651-5.309-5.247-11.823-.978-14.452 4.268-2.629 12.399-1.372 16.642-3.944 4.243-2.571 4.597-8.972 1.905-13.652-2.692-4.681-8.429-7.639-14.786-8.459-6.358-.821-13.333.496-20.309 1.814 0 0 1.557-3.801 1.75-4.392z" data-from="0.173" data-to="0.15" data-translatex="-900" data-translatey="-50" data-when="span" style="transform: translate(-900px, -50px);"></path>

			<path class="b animateme" d="M251.173 136.198c5.872 1.452 11.636 3.932 14.802 7.889 3.165 3.957 3.731 9.388-.08 11.705-3.812 2.318-12 1.52-15.976 4.248-3.976 2.727-3.739 8.978 1.79 13.686s16.345 7.87 27.257 7.762c10.913-.108 21.918-3.486 27.553-8 5.636-4.514 5.9-10.164 2.462-12.728s-10.578-2.042-14.324-4.404c-3.746-2.362-4.096-7.608-.756-11.661s10.369-6.912 17.045-8.718c6.677-1.806 12.997-2.558 19.319-3.311-.492-1.508-.985-3.016-1.356-4.617a30.267 30.267 0 01-.722-4.921c-.1-1.627-.05-3.126.151-4.674a26.644 26.644 0 011.042-4.647 23.193 23.193 0 011.773-4.106 23.836 23.836 0 012.41-3.566 23.437 23.437 0 012.984-3.038 30.388 30.388 0 013.467-2.531c1.156-.727 2.249-1.307 3.342-1.887-.577-6.596-1.155-13.192-3.349-18.668-2.194-5.476-6.005-9.83-10.988-11.531-4.984-1.701-11.14-.749-13.297 3.187s-.315 10.854-2.195 14.709c-1.88 3.856-7.481 4.647-12.964-.05-5.483-4.697-10.85-14.882-12.986-25.584-2.136-10.701-1.04-21.918 2.557-28.225 3.597-6.307 9.694-7.703 13.114-4.305 3.42 3.399 4.159 11.593 7.678 15.091 3.519 3.498 9.816 2.298 13.673-1.404 3.857-3.702 5.271-9.906 4.706-16.263-.566-6.358-3.113-12.869-5.659-19.38-1.655-.368-3.31-.735-5.093-1.108-1.782-.373-3.63-.739-5.803-1.133a292.05 292.05 0 00-6.82-1.153 215.774 215.774 0 00-6.044-.861A233.228 233.228 0 00287.54.755a219.746 219.746 0 00-7.29-.419c-2.637-.108-5.512-.18-8.167-.203-2.654-.02-5.087 0-7.444.07-2.356.06-4.633.159-7.009.299-2.377.141-4.912.329-7.358.549-2.445.22-4.769.468-7.32.787s-5.236.697-7.877 1.117c-2.641.419-5.206.874-7.546 1.326a204.75 204.75 0 00-6.301 1.315c-1.909.429-3.703.862-4.585 1.075-.883.213-6.385 1.701-6.385 1.701.263 7.351.525 14.701 1.424 21.057.899 6.356 2.434 11.715 6.303 14.128 3.869 2.413 10.069 1.879 13.125-1.969 3.056-3.847 2.965-11.005 5.732-14.283 2.766-3.277 8.39-2.673 12.556 3.225 4.166 5.897 6.874 17.085 6.324 27.985-.551 10.9-4.359 21.505-9.392 26.739-5.033 5.235-11.287 5.095-14.19.682-2.902-4.413-2.452-13.097-5.216-17.351-2.765-4.253-8.744-4.073-12.549-1.364-3.806 2.708-5.435 7.944-5.926 13.748-.491 5.805.158 12.177.806 18.55 1.305.428 2.61.855 3.876 1.323 1.266.468 2.478.969 3.748 1.582a42.07 42.07 0 013.697 2.016 24.135 24.135 0 012.889 2.074c.9.75 1.766 1.563 2.613 2.481a26.674 26.674 0 012.398 3.004 30.388 30.388 0 012.065 3.506 26.302 26.302 0 011.48 3.593 34.471 34.471 0 011.007 3.78 29.33 29.33 0 01.494 3.445c.09 1.1.128 2.11.09 3.374-.04 1.264-.155 2.737-.271 4.21 5.981.422 11.962.845 17.835 2.296z" data-from="0.19" data-to="0.169" data-translatex="550" data-translatey="580" data-when="span" style="transform: translate(550px, 580px);"></path>

			<path class="q animateme" d="M665.736 549.135c4.101-4.736 4.187-10.964.665-13.746-3.522-2.782-10.65-2.119-14.138-4.614-3.488-2.496-3.336-8.151 2.209-12.775 5.545-4.625 16.482-8.22 27.39-8.543 10.908-.324 21.786 2.625 27.406 7.222 5.619 4.597 5.981 10.842 2.059 13.648-3.922 2.806-12.124 2.17-16.159 5.057-4.035 2.887-3.901 9.296-.733 13.067 3.169 3.772 9.372 4.904 16.913 4.516 7.541-.387 16.418-2.296 25.296-4.204-.539 1.976-1.078 3.953-1.433 5.232a83.778 83.778 0 01-.91 3.091 328.59 328.59 0 01-1.52 4.745 129.478 129.478 0 01-1.523 4.363c-.528 1.431-1.176 3.12-1.478 3.909-.303.789-2.565 6.066-2.979 6.921-.415.855-1.268 2.616-2.116 4.255a95.547 95.547 0 01-5.469 9.267 61.08 61.08 0 01-2.382 3.323 69.25 69.25 0 01-2.329 2.865 59.73 59.73 0 01-2.325 2.555 50.738 50.738 0 01-5.143 4.67 60.73 60.73 0 01-3.166 2.333 38.267 38.267 0 01-2.725 1.705c-.88.5-1.824.995-2.785 1.45a34.61 34.61 0 01-3.058 1.28 40.488 40.488 0 01-3.59 1.119c-1.213.315-2.32.535-3.497.705a27.66 27.66 0 01-3.534.289 29.85 29.85 0 01-3.886-.184 28.318 28.318 0 01-3.876-.724 24.392 24.392 0 01-3.345-1.139 22.709 22.709 0 01-2.88-1.464 21.633 21.633 0 01-2.676-1.894 26.368 26.368 0 01-2.629-2.504 27.52 27.52 0 01-2.261-2.833 32.092 32.092 0 01-1.938-3.168 61.098 61.098 0 01-2.061-4.213 80.968 80.968 0 01-1.88-4.645 165.621 165.621 0 01-1.766-5.03c-.615-1.832-1.252-3.782-1.821-5.504a771.744 771.744 0 00-1.312-3.937c-.26-.775-1.517-4.231-1.778-4.868a136.81 136.81 0 00-1.293-3.078 44.266 44.266 0 00-1.61-3.317c-.643-1.198-1.453-2.589-2.263-3.98 8.115-3.243 16.229-6.486 20.329-11.223z" data-from="0.208" data-to="0.19" data-translatex="-840" data-translatey="150" data-when="span" style="transform: translate(-840px, 150px);"></path>

			<path class="c animateme" d="M340.007 80.011c-2.194-5.476-6.005-9.83-10.988-11.531-4.984-1.701-11.14-.749-13.297 3.187s-.315 10.854-2.195 14.709c-1.88 3.856-7.481 4.647-12.964-.05-5.483-4.697-10.85-14.882-12.986-25.584-2.136-10.701-1.04-21.918 2.557-28.225 3.597-6.307 9.694-7.703 13.114-4.305 3.42 3.399 4.159 11.593 7.678 15.091 3.519 3.498 9.816 2.298 13.673-1.404 3.857-3.702 5.271-9.906 4.706-16.263-.566-6.358-3.113-12.869-5.659-19.38 2.439.613 4.879 1.226 7.527 1.949 2.649.724 5.507 1.557 8.269 2.425 2.763.868 5.429 1.769 7.986 2.694 2.558.926 5.006 1.874 7.376 2.854 2.37.979 4.698 2.007 5.826 2.504 1.127.497 8.258 4.103 9.423 4.791 1.165.688 3.494 2.063 5.705 3.486a101.213 101.213 0 016.033 4.199 61.232 61.232 0 014.467 3.687 65.26 65.26 0 014.055 4.014 58.037 58.037 0 013.581 4.274 46.263 46.263 0 012.829 4.192 44.89 44.89 0 012.221 4.215 33.35 33.35 0 012.56 8.143 30.36 30.36 0 01.441 4.242c.04 1.387-.02 2.698-.25 4.178a27.476 27.476 0 01-1.136 4.618c-.515 1.491-1.128 2.774-1.459 3.468-.331.693-3.484 4.716-4.143 5.247l-2.646 2.134c-.647.521-5.234 2.957-6.1 3.28-.865.323-2.597.969-4.437 1.563a90.051 90.051 0 01-5.839 1.646c-2.09.522-4.283 1.015-6.331 1.458-2.049.444-3.964.84-5.838 1.237a323.09 323.09 0 00-5.4 1.183c-1.674.385-3.17.755-4.865 1.228a90.495 90.495 0 00-5.336 1.661c-1.704.597-3.256 1.225-4.809 1.854-.577-6.596-1.155-13.192-3.349-18.668z" data-from="0.22" data-to="0.2" data-translatex="500" data-translatey="250" data-when="span" style="transform: translate(500px, 250px);"></path>

			<path class="a animateme" d="M205.478 9.837a162.682 162.682 0 00-5.962 2.023 381.405 381.405 0 00-6.244 2.332c-1.319.503-8.369 3.629-9.798 4.381-1.43.751-4.289 2.254-6.682 3.609a90.653 90.653 0 00-6.016 3.7 73.477 73.477 0 00-4.848 3.529 77.451 77.451 0 00-4.679 4.025 58.197 58.197 0 00-4.067 4.2 59.284 59.284 0 00-3.552 4.478 45.788 45.788 0 00-5.155 9.315c-.676 1.653-1.229 3.314-1.506 4.145-.277.831-1.33 7.512-1.289 8.477.04.966.122 2.896.404 4.797.281 1.9.761 3.77 1.387 5.473a21.881 21.881 0 002.289 4.58 26.216 26.216 0 003.333 4.111 23.295 23.295 0 004.046 3.254c1.545.994 3.341 1.939 5.322 2.789 1.982.85 4.068 1.575 5.967 2.157a75.07 75.07 0 005.137 1.368c1.565.363 2.936.647 4.491.946 1.555.298 3.253.603 4.77.865 1.518.262 2.856.483 3.524.593.669.11 5.049.818 5.971.975.922.157 2.851.485 4.558.793 1.707.307 3.234.602 4.638.893a109.1 109.1 0 013.953.89c1.269.312 2.527.648 3.785.984-.648-6.373-1.297-12.745-.806-18.55.491-5.804 2.12-11.04 5.926-13.748 3.805-2.709 9.784-2.889 12.549 1.364 2.764 4.254 2.314 12.938 5.216 17.351 2.903 4.413 9.157 4.553 14.19-.682 5.033-5.234 8.841-15.839 9.392-26.739.55-10.9-2.158-22.088-6.324-27.985-4.166-5.898-9.79-6.502-12.556-3.225-2.767 3.278-2.676 10.436-5.732 14.283-3.056 3.848-9.256 4.382-13.125 1.969-3.869-2.413-5.404-7.772-6.303-14.128s-1.161-13.706-1.424-21.057c-1.527.458-3.055.917-4.78 1.465z" data-from="0.236" data-to="0.222" data-translatex="0" data-translatey="750" data-when="span" style="transform: translate(0px, 750px);"></path>

			<path class="v animateme" d="M16.917 622.254c5.846-4.517 13.798-8.359 19.785-7.901 5.988.458 10.009 5.215 9.494 9.603-.514 4.389-5.562 8.407-6.039 12.575-.477 4.168 3.617 8.484 11.045 8.022 7.429-.463 18.189-5.703 27.183-13.366 8.993-7.662 16.217-17.743 17.794-25.335 1.577-7.593-2.496-12.692-7.499-12.392-5.004.299-10.937 5.998-15.888 6.329-4.951.332-8.917-4.704-7.292-11.013 1.626-6.309 8.841-13.889 16.676-19.699 7.834-5.811 16.285-9.851 24.736-13.892-1.696-.437-3.392-.875-4.964-1.43a23.865 23.865 0 01-4.532-2.144 28.621 28.621 0 01-4.429-3.308 26.514 26.514 0 01-3.764-4.267c-1.132-1.592-2.156-3.372-3.123-5.481-.967-2.109-1.875-4.548-2.686-7.212-.81-2.664-1.521-5.554-2.171-8.618-.651-3.064-1.239-6.303-1.787-9.419-.547-3.116-1.067-6.195-1.587-9.036-.519-2.842-1.045-5.488-1.626-7.996-.582-2.509-1.218-4.88-1.973-7.171-.755-2.292-1.628-4.505-2.421-6.237-.792-1.732-1.504-2.984-2.38-4.258a28.497 28.497 0 00-3.109-3.785 25.681 25.681 0 00-3.965-3.309 24.63 24.63 0 00-4.677-2.487 26.561 26.561 0 00-5.2-1.483 25.046 25.046 0 00-5.218-.359c-1.728.06-3.471.291-5.26.715a35.421 35.421 0 00-5.157 1.673 26.532 26.532 0 00-4.058 2.08 35.324 35.324 0 00-4.131 2.997 50.106 50.106 0 00-4.527 4.338 49.47 49.47 0 00-3.801 4.696 52.028 52.028 0 00-3.036 4.78 67.474 67.474 0 00-2.958 5.915c-1.041 2.342-2.155 5.121-3.345 8.658-1.191 3.538-2.477 7.9-3.255 10.659-.778 2.759-1.06 3.955-1.583 6.514a331.255 331.255 0 00-1.937 10.314 246.635 246.635 0 00-1.689 11.665c-.486 3.991-.91 8.179-1.274 12.807a411.268 411.268 0 00-.864 14.415c-.198 4.717-.291 8.99-.299 13.776 0 4.786.07 10.037.195 14.49.127 4.453.305 8.101.568 12.089.263 3.987.612 8.31 1.077 12.932.466 4.621 1.048 9.539 1.63 14.458 3.738-5.192 7.475-10.384 13.321-14.902z" data-from="0.247" data-to="0.229" data-translatex="-300" data-translatey="-400" data-when="span" style="transform: translate(-300px, -400px);"></path>

			<path class="u animateme" d="M189.57 665.262c-9.777 7.26-21.908 14.078-29.899 15.038-7.991.96-11.839-3.937-10.729-8.286 1.11-4.349 7.177-8.148 8.435-12.249 1.257-4.1-2.296-8.501-9.51-8.811-7.214-.309-18.087 3.471-26.952 9.835-8.866 6.364-15.721 15.309-17.397 22.374-1.676 7.065 1.828 12.247 6.647 12.096 4.819-.15 10.952-5.634 15.911-5.788 4.959-.155 8.743 5.019 7.894 11.411-.849 6.393-6.332 14-12.383 20.688-6.05 6.689-12.669 12.458-19.287 18.227 2.946.198 5.892.396 9.019.566 3.127.171 6.436.314 9.867.417 3.432.102 6.988.165 10.45.184 3.462.02 6.831 0 10.511-.08 3.679-.08 7.67-.202 11.409-.363 3.738-.161 7.226-.356 8.97-.453 1.744-.1 12.985-.992 14.924-1.197l7.755-.817c1.939-.205 13.144-1.705 15.238-2.057 2.095-.352 6.404-1.075 10.403-1.824 4-.748 7.752-1.532 11.44-2.388a216.436 216.436 0 0010.682-2.752 158.447 158.447 0 0010.542-3.396 149.171 149.171 0 0010.036-4.057c2.902-1.309 5.05-2.433 7.133-3.658 2.082-1.225 4.072-2.537 5.066-3.193.995-.656 6.44-5.282 7.212-6.16.773-.878 2.317-2.633 3.645-4.399a34.249 34.249 0 003.411-5.514 37.16 37.16 0 002.36-6.103 27.41 27.41 0 00.976-5.589c.118-1.73.06-3.36-.158-4.987a25.823 25.823 0 00-1.112-4.761 22.287 22.287 0 00-1.961-4.282 23.968 23.968 0 00-2.874-3.91 23.79 23.79 0 00-3.78-3.385c-1.459-1.059-3.141-2.059-4.968-2.956-1.828-.897-3.69-1.648-6.441-2.517-2.751-.868-6.335-1.833-9.529-2.61a247.468 247.468 0 00-7.548-1.692c-1.431-.301-10.788-2.416-11.859-2.738-1.071-.322-3.213-.966-5.005-1.585a43.089 43.089 0 01-4.722-1.927 34.514 34.514 0 01-3.711-2.079 19.364 19.364 0 01-2.762-2.143c-.877-.816-1.802-1.804-2.728-2.792-7.422 7.701-14.844 15.401-24.621 22.661z" data-from="0.264" data-to="0.251" data-translatex="370" data-translatey="-690" data-when="span" style="transform: translate(370px, -690px);"></path>

			<path class="d animateme" d="M28.022 282.431c5.864.492 11.677-.971 15.043-4.784 3.367-3.813 4.282-9.97 1.535-13.433-2.747-3.463-9.15-4.224-11.75-7.517-2.6-3.294-1.39-9.117 4.38-12.732 5.769-3.616 16.094-5.019 26.982-3.335 10.887 1.685 22.338 6.457 27.672 12.083 5.335 5.625 4.555 12.105.143 14.483-4.412 2.377-12.456.654-16.84 2.977-4.384 2.324-5.107 8.693-3.743 12.985 1.363 4.291 4.811 6.501 9.717 7.546 4.905 1.045 11.264.924 17.625.804-.83 1.75-1.659 3.499-2.453 5.38a110.332 110.332 0 00-2.245 5.847c-.68 1.919-1.3 3.785-1.939 5.718-.639 1.933-1.297 3.933-2.095 6.182-.798 2.25-1.735 4.749-2.733 7.065-.998 2.316-2.056 4.449-3.192 6.363-1.136 1.914-2.349 3.61-3.671 5.112a25.842 25.842 0 01-4.413 3.998 33.4 33.4 0 01-5.27 3.047 26.803 26.803 0 01-4.86 1.707 33.322 33.322 0 01-4.913.841c-1.667.16-3.37.199-5.052.122a37.96 37.96 0 01-4.919-.556 58.776 58.776 0 01-3.817-.844c-.746-.187-5.267-1.936-6.035-2.355-.768-.418-2.304-1.255-3.648-2.084a33.292 33.292 0 01-3.711-2.642 41.435 41.435 0 01-3.904-3.625 48.145 48.145 0 01-4.029-4.879 60.48 60.48 0 01-6.127-10.733 87.793 87.793 0 01-2.347-5.864 107.936 107.936 0 01-2.122-6.56 133.864 133.864 0 01-3.1-13.277 205.887 205.887 0 01-1.115-6.845c-.309-2.12-.53-3.894-.74-5.582 5.911 2.448 11.821 4.895 17.686 5.387z" data-from="0.28" data-to="0.262" data-translatex="780" data-translatey="-140" data-when="span" style="transform: translate(780px, -140px);"></path>
		
			<path class="h animateme" d="M580.326 164.776c-2.348.501-4.911 1.045-7.578 1.601a796.947 796.947 0 01-8.729 1.776 698.874 698.874 0 01-10.921 2.073 546.088 546.088 0 01-11.782 2.002 430.831 430.831 0 01-11.37 1.648c-3.759.492-7.453.927-10.976 1.296-3.524.369-6.831.668-10.61.947-3.78.279-8.026.539-12.294.729a673.58 673.58 0 01-10.808.377c-2.165.06-13.284.06-15.311 0-2.027-.06-6.082-.164-10.158-.329a511.49 511.49 0 01-11.819-.617c-3.647-.234-6.845-.483-10.043-.731 1.307 4.831 2.613 9.66 2.706 16.579.09 6.918-1.029 15.922-4.703 20.529-3.674 4.606-9.898 4.816-13.025 1.693-3.127-3.122-3.153-9.574-6.13-12.531-2.976-2.956-8.9-2.417-13.139 3.701-4.24 6.117-6.792 17.81-6.35 29.617.443 11.807 3.881 23.725 8.864 29.666 4.983 5.941 11.509 5.903 14.374 1.79 2.865-4.114 2.067-12.302 4.874-16.394 2.807-4.091 9.217-4.085 12.975 2.466 3.757 6.551 4.862 19.644 4.119 30.675-.743 11.03-3.333 19.996-5.923 28.963 8.014-1.728 16.027-3.456 26.275-4.597 10.248-1.141 22.727-1.694 29.073 1.142 6.345 2.836 6.555 9.061 3.088 11.913-3.466 2.852-10.605 2.33-14.044 4.894-3.438 2.564-3.174 8.213 2.462 12.728 5.635 4.514 16.64 7.892 27.553 8 10.913.108 21.729-3.055 27.257-7.763 5.529-4.708 5.766-10.958 1.79-13.685-3.976-2.728-12.164-1.93-16.256-4.738-4.091-2.807-4.085-9.216.336-13.112 4.42-3.896 13.251-5.275 20.36-5.321 7.11-.05 12.495 1.24 17.88 2.527.07-3.89.14-7.781.282-11.893a392.362 392.362 0 011.711-25.52 370.693 370.693 0 013.125-23.514 438.643 438.643 0 012.224-12.355 477.877 477.877 0 012.567-12.302c.883-3.978 1.77-7.746 2.715-11.589a743.32 743.32 0 012.876-11.282 796.103 796.103 0 012.61-9.67 1514.522 1514.522 0 014.398-15.581c.638-2.22 1.361-4.727 2.084-7.234-2.131.459-4.262.917-6.609 1.419z" data-from="0.295" data-to="0.276" data-translatex="500" data-translatey="480" data-when="span" style="transform: translate(500px, 480px);"></path>
		</g>
	</svg>