<svg xmlns="http://www.w3.org/2000/svg" viewBox="-117 -136 1000 1000" class="shift">
	<g fill="none" stroke="#000" stroke-linecap="round" stroke-linejoin="round">
	<path id="lvl1" d="M409.625 315.794c-10.915.03-24.73-1.644-31.743-5.593-7.013-3.949-7.222-10.174-3.756-13.026 3.466-2.851 10.606-2.329 14.044-4.893 3.439-2.564 3.174-8.214-2.461-12.728-5.636-4.515-16.641-7.892-27.553-8-10.913-.108-21.73 3.055-27.258 7.762-5.528 4.708-5.765 10.959-1.79 13.687 3.976 2.727 12.165 1.93 16.256 4.736 4.091 2.807 4.085 9.218-.335 13.113-4.42 3.895-13.252 5.275-22.125 5.098-8.873-.176-17.787-1.909-26.701-3.641-1.76 6.151-3.519 12.302-3.838 19.879-.319 7.578.802 16.582 4.476 21.189 3.674 4.606 9.899 4.816 13.025 1.693 3.127-3.122 3.153-9.574 6.13-12.531 2.976-2.956 8.9-2.417 13.139 3.701 4.24 6.117 6.792 17.81 6.35 29.617-.443 11.807-3.881 23.725-8.864 29.666-4.983 5.941-11.509 5.903-14.374 1.79-2.865-4.114-2.067-12.302-4.874-16.394-2.807-4.091-9.217-4.085-12.975 2.466-3.757 6.551-4.862 19.644-4.119 30.675.743 11.03 3.333 19.996 5.923 28.963 8.015 1.728 16.03 3.457 26.945 3.485 10.915.03 24.73-1.644 31.743-5.593 7.013-3.949 7.222-10.174 3.756-13.026-3.466-2.851-10.606-2.329-14.044-4.893-3.439-2.564-3.174-8.214 2.461-12.728 5.636-4.515 16.641-7.892 27.553-8 10.913-.108 21.73 3.055 27.258 7.762 5.528 4.708 5.765 10.959 1.79 13.687-3.976 2.727-12.165 1.93-16.256 4.736-4.091 2.807-4.085 9.218.335 13.113 4.42 3.895 13.252 5.275 22.125 5.098 8.873-.176 17.787-1.909 26.701-3.641-1.76-6.151-3.52-12.301-3.839-19.879-.319-7.578.802-16.581 4.476-21.188 3.674-4.607 9.899-4.817 13.025-1.694 3.127 3.122 3.153 9.574 6.13 12.531 2.976 2.956 8.901 2.417 13.14-3.701 4.239-6.117 6.792-17.81 6.349-29.617-.443-11.807-3.881-23.724-8.863-29.665-4.983-5.941-11.509-5.904-14.374-1.79-2.865 4.113-2.068 12.301-4.875 16.393-2.807 4.091-9.217 4.085-12.975-2.466-3.757-6.551-4.862-19.644-4.119-30.674.743-11.031 3.333-19.997 5.924-28.964-8.014 1.728-16.028 3.457-26.943 3.485z"/>
	<path id="lvl0" d="M363.135 354.307c-.08 1.895.2 4.146 1.118 5.297.919 1.151 2.476 1.204 3.257.424.781-.78.787-2.393 1.532-3.133.744-.739 2.226-.605 3.285.925 1.06 1.53 1.698 4.453 1.587 7.405-.111 2.952-.97 5.931-2.216 7.415-1.245 1.485-2.876 1.475-3.593.447-.717-1.028-.517-3.076-1.219-4.1-.701-1.024-2.303-1.024-3.243.613-.94 1.638-1.216 4.911-1.03 7.669.186 2.759.833 5 1.48 7.243 2.004.433 4.008.867 6.737.874 2.729 0 6.183-.41 7.936-1.397 1.752-.986 1.805-2.543.939-3.256-.866-.713-2.652-.583-3.512-1.223-.86-.641-.793-2.053.616-3.182 1.409-1.13 4.161-1.975 6.889-2.001 2.728-.03 5.432.764 6.814 1.941 1.381 1.177 1.441 2.74.447 3.421-.993.682-3.041.482-4.065 1.185-1.024.702-1.024 2.304.08 3.278 1.104.973 3.312 1.318 5.531 1.274 2.219-.05 4.447-.478 6.677-.911-.439-1.537-.878-3.074-.958-4.968-.08-1.894.201-4.146 1.119-5.298.919-1.152 2.476-1.205 3.257-.424.781.781.787 2.395 1.532 3.133.744.739 2.226.604 3.285-.925 1.059-1.529 1.697-4.452 1.587-7.404-.11-2.952-.97-5.931-2.215-7.416-1.246-1.486-2.877-1.476-3.594-.447-.717 1.029-.517 3.076-1.219 4.099-.701 1.023-2.303 1.023-3.243-.613-.94-1.637-1.216-4.91-1.03-7.668.185-2.758.833-5.002 1.48-7.244-2.003.431-4.006.862-6.735.869-2.728 0-6.182-.412-7.936-1.398-1.753-.987-1.806-2.544-.939-3.257.867-.713 2.653-.583 3.512-1.223.859-.641.792-2.053-.616-3.182s-4.16-1.973-6.888-2c-2.728-.03-5.432.763-6.815 1.941-1.382 1.177-1.442 2.74-.447 3.421.994.682 3.042.482 4.065 1.185 1.023.702 1.023 2.304-.08 3.277-1.103.974-3.311 1.318-5.529 1.274-2.219-.04-4.45-.477-6.679-.91-.441 1.538-.881 3.076-.961 4.97z"/>
	<path id="lvl2" d="M429.127 174.641a709.668 709.668 0 01-7.223-.862 399.541 399.541 0 01-8.399-1.148 319.061 319.061 0 01-16.798-2.934 262.534 262.534 0 01-8.806-1.935c-2.946-.702-5.9-1.464-8.552-2.199a166.468 166.468 0 01-7.298-2.194 161.223 161.223 0 01-6.592-2.308 117.54 117.54 0 01-5.391-2.172 99.783 99.783 0 01-4.3-1.979 72.345 72.345 0 01-3.629-1.904 79.552 79.552 0 01-3.519-2.098 51.46 51.46 0 01-3.216-2.201 61.19 61.19 0 01-3.68-2.949 49.095 49.095 0 01-3.727-3.593 52.83 52.83 0 01-3.276-3.886 28.418 28.418 0 01-2.269-3.437 39.387 39.387 0 01-2.066-4.223 29.26 29.26 0 01-1.484-4.607 30.39 30.39 0 01-.722-4.922c-.1-1.627-.05-3.125.151-4.674a26.695 26.695 0 011.042-4.647 23.225 23.225 0 011.773-4.106 23.841 23.841 0 012.411-3.566 23.373 23.373 0 012.984-3.038 30.455 30.455 0 013.467-2.532 29.465 29.465 0 013.573-1.912 54.556 54.556 0 014.579-1.829 89.706 89.706 0 015.335-1.66c1.695-.474 3.191-.843 4.864-1.229 1.674-.385 3.528-.786 5.402-1.183 1.874-.396 3.789-.793 5.838-1.236 2.048-.444 4.241-.937 6.33-1.46a90.267 90.267 0 005.84-1.646 51.335 51.335 0 005.202-1.968c1.631-.729 3.16-1.542 4.571-2.469a24.273 24.273 0 003.936-3.211 23.19 23.19 0 003.092-3.906 19.423 19.423 0 001.984-4.139c.515-1.49.908-3.139 1.137-4.618.229-1.479.294-2.79.25-4.178a29.771 29.771 0 00-.442-4.242 33.425 33.425 0 00-1.02-4.16 33.722 33.722 0 00-1.54-3.983 44.768 44.768 0 00-2.221-4.215 46.136 46.136 0 00-2.829-4.193 57.604 57.604 0 00-3.582-4.274 65.25 65.25 0 00-4.054-4.014 61.063 61.063 0 00-4.467-3.688 101.999 101.999 0 00-6.033-4.2 114.122 114.122 0 00-6.894-4.088 136.675 136.675 0 00-7.046-3.589 151.241 151.241 0 00-7.016-3.105 176.835 176.835 0 00-7.374-2.852 198.02 198.02 0 00-7.986-2.696 231.173 231.173 0 00-15.405-4.251c-2.048-.49-3.702-.858-5.484-1.231a214.154 214.154 0 00-5.804-1.133 292.05 292.05 0 00-6.82-1.153 212.006 212.006 0 00-6.045-.86A232.559 232.559 0 00287.533.709a222.356 222.356 0 00-7.29-.42 260.471 260.471 0 00-8.166-.202c-2.654-.02-5.088 0-7.445.07-2.357.06-4.632.159-7.009.299-2.377.141-4.913.329-7.358.549-2.444.22-4.768.468-7.32.787-2.552.319-5.237.697-7.878 1.117-2.64.419-5.205.874-7.544 1.326-2.34.451-4.393.885-6.302 1.315-1.91.43-3.704.863-5.504 1.324-1.801.461-3.632.956-5.466 1.452a287.59 287.59 0 00-4.78 1.466 164.373 164.373 0 00-5.964 2.022 188.86 188.86 0 00-7.418 2.853 122.189 122.189 0 00-7.449 3.34 153.355 153.355 0 00-7.856 4.13 90.18 90.18 0 00-6.017 3.7 73.74 73.74 0 00-4.847 3.531 76.792 76.792 0 00-4.679 4.025 58.214 58.214 0 00-7.62 8.679 45.898 45.898 0 00-5.156 9.315 33.879 33.879 0 00-1.682 5.258 40.021 40.021 0 00-.938 6.252 27.85 27.85 0 00.229 5.909 27.936 27.936 0 001.387 5.472 21.897 21.897 0 002.289 4.582 26.29 26.29 0 003.334 4.111 23.307 23.307 0 004.047 3.255c1.545.994 3.34 1.939 5.321 2.789 1.982.85 4.068 1.576 5.968 2.157 1.9.582 3.572 1.005 5.137 1.368 1.564.363 2.936.648 4.491.946 1.555.299 3.254.604 4.771.866s2.854.483 4.252.711c1.399.228 2.859.463 4.511.738 1.652.275 3.582.604 5.289.912 1.707.308 3.235.603 4.638.894 1.404.29 2.685.578 3.953.889 1.269.312 2.527.648 3.808 1.029a63.37 63.37 0 013.852 1.278 41.53 41.53 0 017.446 3.598 24.069 24.069 0 012.89 2.074 27.59 27.59 0 012.613 2.48 26.868 26.868 0 012.398 3.005 30.296 30.296 0 012.064 3.506 26.412 26.412 0 011.481 3.593c.411 1.246.76 2.583 1.006 3.781.246 1.197.402 2.343.495 3.444.09 1.101.128 2.111.09 3.374a34.774 34.774 0 01-.419 4.393 38.723 38.723 0 01-1.258 5.354 40.487 40.487 0 01-2.074 5.303 34.458 34.458 0 01-2.638 4.619 41.9 41.9 0 01-3.546 4.536 46.278 46.278 0 01-4.377 4.245 50.087 50.087 0 01-4.606 3.462 55.484 55.484 0 01-4.574 2.743 68.893 68.893 0 01-5.018 2.449 93.681 93.681 0 01-5.91 2.365 108.365 108.365 0 01-6.339 2.073c-2.157.635-4.334 1.21-6.234 1.674-1.901.465-3.524.82-5.421 1.193-1.897.372-4.187.785-6.539 1.158-2.352.374-4.826.72-7.829 1.061a251.77 251.77 0 01-20.995 1.489c-3.703.109-7.502.144-11.057.119-3.554-.03-6.866-.113-10.178-.251a294.82 294.82 0 01-10.745-.643 485.753 485.753 0 01-13.896-1.279 492.618 492.618 0 01-14.336-1.752 609.781 609.781 0 01-14.182-2.114 875.796 875.796 0 01-15.086-2.567 1685.265 1685.265 0 01-16.415-3.028 3775.177 3775.177 0 01-15.312-2.937c-.667 2.338-1.333 4.676-1.957 6.88a850.426 850.426 0 00-1.771 6.336 737.498 737.498 0 00-1.795 6.635 332.396 332.396 0 00-1.686 6.603 481.175 481.175 0 00-2.068 8.796 255.574 255.574 0 00-1.789 8.628 273.313 273.313 0 00-1.675 9.774 289.52 289.52 0 00-1.38 10.38c-.363 3.186-.617 6.01-.807 8.54a207.03 207.03 0 00-.419 7.225 236.34 236.34 0 00-.187 7.372c-.03 2.469-.01 4.903.04 7.426.06 2.523.157 5.134.282 7.502.125 2.368.276 4.494.432 6.387.157 1.892.32 3.552.507 5.227.186 1.674.407 3.449.717 5.568.309 2.119.698 4.543 1.117 6.846.418 2.303.841 4.361 1.357 6.575a130.683 130.683 0 001.742 6.703 108.444 108.444 0 002.123 6.561 87.588 87.588 0 002.346 5.864 58.17 58.17 0 002.615 5.219 60.618 60.618 0 003.512 5.515 48.263 48.263 0 004.029 4.878 41.332 41.332 0 003.904 3.626 33.22 33.22 0 003.712 2.643 44.189 44.189 0 004.401 2.376 38.011 38.011 0 004.529 1.77c1.5.478 2.992.852 4.57 1.137a37.6 37.6 0 004.918.555c1.682.08 3.386.04 5.052-.122a33.466 33.466 0 004.914-.84 26.93 26.93 0 004.86-1.707 33.32 33.32 0 005.269-3.048 25.775 25.775 0 004.414-3.999c1.322-1.501 2.535-3.196 3.671-5.111 1.137-1.915 2.196-4.048 3.193-6.363.998-2.316 1.935-4.815 2.733-7.065s1.456-4.25 2.095-6.184a276.498 276.498 0 011.939-5.718c.681-1.92 1.451-3.967 2.244-5.848a72.267 72.267 0 012.316-4.968 31.733 31.733 0 011.862-3.177 29.661 29.661 0 011.905-2.547 22.118 22.118 0 012.277-2.347 27.322 27.322 0 012.96-2.282 21.52 21.52 0 013.144-1.733 25.449 25.449 0 013.536-1.281 27.199 27.199 0 013.779-.77 25.688 25.688 0 013.805-.214c1.326.02 2.752.134 4.184.348a32.77 32.77 0 014.427.988 39.341 39.341 0 014.567 1.678 41.348 41.348 0 014.261 2.181 42.553 42.553 0 013.908 2.592 51.793 51.793 0 013.872 3.18 63.245 63.245 0 013.622 3.564 55.659 55.659 0 012.878 3.319 68.063 68.063 0 012.624 3.497 100.151 100.151 0 012.343 3.506 64.283 64.283 0 011.401 2.29c.374.642.725 1.261 1.095 1.932.369.671.756 1.394 1.497 2.898.74 1.503 1.834 3.787 2.966 6.387a165.875 165.875 0 013.253 8.074 141.384 141.384 0 012.643 7.753 220.366 220.366 0 012.505 8.718c.78 2.938 1.46 5.763 2.078 8.557a227.037 227.037 0 011.696 8.412 242.53 242.53 0 011.472 9.005c.465 3.208.907 6.68 1.264 9.89.357 3.211.629 6.161.85 9.038.222 2.877.394 5.683.529 8.708.134 3.025.231 6.27.278 9.266a256.3 256.3 0 01-.01 8.767c-.06 3.025-.168 6.336-.297 9.145a241.06 241.06 0 01-.448 7.418 300.536 300.536 0 01-.591 6.808 257.65 257.65 0 01-.728 6.566 302.906 302.906 0 01-1.01 7.416 303.908 303.908 0 01-2.725 15.487 214.466 214.466 0 01-1.361 6.269 270.418 270.418 0 01-1.718 6.978 252.374 252.374 0 01-2.082 7.517 241.176 241.176 0 01-2.279 7.32 183.919 183.919 0 01-2.276 6.513 200.121 200.121 0 01-2.552 6.543 161.156 161.156 0 01-2.76 6.327 140.512 140.512 0 01-3.095 6.289 118.463 118.463 0 01-3.681 6.529 107.2 107.2 0 01-4.321 6.572 76.427 76.427 0 01-4.601 5.835 71.166 71.166 0 01-4.941 5.111 54.154 54.154 0 01-4.823 4.019 53.218 53.218 0 01-4.872 3.206c-1.6.928-3.144 1.7-4.874 2.415a49.939 49.939 0 01-5.329 1.85c-1.68.472-3.118.756-4.709.945-1.592.19-3.335.285-4.882.27a24.269 24.269 0 01-4.401-.415 32.856 32.856 0 01-4.813-1.28 23.823 23.823 0 01-4.531-2.143 28.638 28.638 0 01-4.428-3.309 26.521 26.521 0 01-3.765-4.268c-1.132-1.591-2.157-3.372-3.123-5.481-.967-2.109-1.876-4.549-2.686-7.212-.811-2.664-1.522-5.554-2.172-8.618-.651-3.065-1.239-6.304-1.787-9.42-.547-3.117-1.067-6.196-1.587-9.037-.519-2.842-1.046-5.488-1.627-7.997-.582-2.508-1.218-4.88-1.973-7.171a62.664 62.664 0 00-2.421-6.237c-.792-1.73-1.504-2.983-2.38-4.257a28.367 28.367 0 00-3.108-3.786 25.64 25.64 0 00-3.965-3.31 24.66 24.66 0 00-4.677-2.487 26.505 26.505 0 00-5.201-1.484 25.036 25.036 0 00-5.217-.358c-1.73.06-3.471.29-5.26.714a35.421 35.421 0 00-5.157 1.674 26.69 26.69 0 00-4.06 2.08 35.199 35.199 0 00-4.129 2.997 49.981 49.981 0 00-4.528 4.338 49.62 49.62 0 00-3.802 4.697 52.227 52.227 0 00-3.034 4.78 67.789 67.789 0 00-2.958 5.916c-1.042 2.341-2.156 5.12-3.347 8.657-1.191 3.537-2.478 7.901-3.256 10.66-.778 2.759-1.06 3.956-1.582 6.514a334.947 334.947 0 00-1.937 10.315 248.176 248.176 0 00-1.689 11.666c-.485 3.992-.91 8.18-1.273 12.808a409.008 409.008 0 00-.863 14.415 330.746 330.746 0 00-.301 13.78c0 4.786.07 10.036.196 14.489.127 4.453.305 8.102.568 12.089.264 3.988.612 8.31 1.077 12.932.466 4.622 1.047 9.54 1.606 13.759a337.37 337.37 0 001.67 11.212 382.986 382.986 0 001.932 10.726 506.316 506.316 0 002.565 12.337 557.002 557.002 0 002.936 12.589c1.006 4.1 2.028 8.078 3.089 12.08 1.062 4.002 2.215 8.217 3.29 12.077 1.074 3.86 2.094 7.449 3.013 10.668.92 3.218 1.741 6.066 2.561 8.914 2.64.567 5.284 1.135 8.271 1.77 2.988.634 6.323 1.335 9.586 2.005 3.263.669 6.455 1.307 9.633 1.918 3.178.612 6.346 1.198 9.878 1.811 3.532.612 7.427 1.252 10.958 1.793a400.362 400.362 0 0019.312 2.49c3.246.337 6.642.648 9.843.906 3.202.257 6.085.451 9.211.621 3.127.171 6.437.314 9.868.417 3.431.102 6.988.165 10.45.184 3.462.02 6.831 0 10.51-.08 3.68-.08 7.67-.202 11.41-.363 3.74-.161 7.226-.356 10.843-.602 3.618-.247 7.366-.545 11.179-.898 3.812-.354 7.69-.762 11.496-1.217 3.806-.454 7.541-.955 11.503-1.557a371.97 371.97 0 0012.27-2.074c4-.749 7.752-1.532 11.44-2.388a218.744 218.744 0 0010.683-2.751 158.422 158.422 0 0010.541-3.396 148.994 148.994 0 0010.037-4.057c2.903-1.31 5.05-2.433 7.133-3.659a63.816 63.816 0 005.973-3.965 53.7 53.7 0 005.399-4.618 46.254 46.254 0 004.551-5.17 34.252 34.252 0 003.41-5.515 37.157 37.157 0 002.361-6.102c.556-1.966.859-3.86.976-5.591.118-1.73.06-3.36-.158-4.987a25.921 25.921 0 00-1.111-4.761 22.416 22.416 0 00-1.962-4.283 24.019 24.019 0 00-6.652-7.295c-1.46-1.059-3.142-2.059-4.97-2.956-1.827-.898-3.691-1.649-6.441-2.517-2.75-.868-6.335-1.832-9.529-2.609-3.194-.777-6.115-1.391-9.107-2.046-2.992-.654-6.111-1.359-8.741-2.033-2.631-.675-4.772-1.318-6.564-1.937a42.892 42.892 0 01-4.722-1.927 34.78 34.78 0 01-3.712-2.08 19.353 19.353 0 01-2.762-2.144 23.346 23.346 0 01-2.656-2.924 21.549 21.549 0 01-2.306-3.771 23.668 23.668 0 01-1.601-4.451 24.397 24.397 0 01-.687-4.625 25.19 25.19 0 01.201-4.71 35.322 35.322 0 011.148-5.276 32.939 32.939 0 012.096-5.285 53.451 53.451 0 013.219-5.578 48.442 48.442 0 013.365-4.494 45.425 45.425 0 013.572-3.798 81.695 81.695 0 015.335-4.665 86.847 86.847 0 016.427-4.652 107.054 107.054 0 017.161-4.307c2.5-1.378 5.279-2.788 7.992-4.063a153.622 153.622 0 018.3-3.601 199.185 199.185 0 018.686-3.237 175.84 175.84 0 018.441-2.692c2.97-.87 6.268-1.764 9.293-2.525a218.12 218.12 0 018.406-1.938c2.624-.552 5.12-1.029 7.723-1.481 2.603-.451 5.314-.876 7.927-1.244 2.613-.368 5.125-.679 7.5-.937 2.375-.259 4.612-.466 7.039-.65a210.16 210.16 0 017.913-.454 246.77 246.77 0 019.67-.189c3.367 0 6.735.08 10.53.278 3.796.196 8.024.508 12.062.911s7.888.895 11.721 1.487c3.833.592 7.651 1.284 11.311 2.043a198.585 198.585 0 0121.144 5.606c3.374 1.1 6.675 2.293 9.491 3.388a129.522 129.522 0 017.584 3.217c2.381 1.1 4.754 2.28 7.219 3.627a136.674 136.674 0 017.053 4.14 72.804 72.804 0 018.708 6.38 55.228 55.228 0 014.056 3.835 69.224 69.224 0 014.799 5.584 45.278 45.278 0 014.07 6.293c1.218 2.281 2.336 4.845 3.145 7.297.809 2.452 1.315 4.809 1.554 7.2a30.01 30.01 0 01-.127 7.206 26.85 26.85 0 01-1.886 6.786 25.797 25.797 0 01-3.179 5.453 21.564 21.564 0 01-3.622 3.739 28.377 28.377 0 01-4.271 2.858c-1.552.854-3.229 1.612-5.159 2.332-1.931.721-3.999 1.369-6.519 2.02-2.521.65-5.436 1.285-8.204 1.826-2.768.54-5.386.987-8.59 1.529-3.204.541-6.992 1.179-10.345 1.818-3.353.639-6.272 1.281-8.963 2-2.692.719-5.156 1.516-7.73 2.645-2.575 1.128-5.196 2.554-7.627 4.462a27.802 27.802 0 00-6.394 7.082c-1.757 2.803-3.061 6.032-3.806 9.257-.745 3.224-.923 6.322-.737 9.263a31.903 31.903 0 001.601 8.224 38.164 38.164 0 003.69 7.927c1.58 2.579 3.511 5.059 5.386 7.085 1.874 2.026 3.636 3.549 5.843 5.133s4.832 3.203 7.452 4.6c2.621 1.397 5.238 2.572 8.41 3.763 3.172 1.191 6.899 2.398 10.767 3.447a156.331 156.331 0 0011.33 2.599c3.552.681 6.698 1.164 9.736 1.562 3.038.397 5.967.71 8.902.966 2.936.255 5.876.455 11.034.591 5.158.135 12.532.208 18.43.137 5.897-.07 10.316-.284 14.33-.539 4.014-.254 7.622-.551 11.59-.939 3.967-.389 8.209-.86 12.438-1.382 4.229-.522 8.27-1.076 12.36-1.679a687.905 687.905 0 0012.562-1.976 971.312 971.312 0 0013.841-2.414c4.978-.903 10.405-1.919 15.292-2.847 4.886-.928 9.23-1.769 13.575-2.61-.605-2.12-1.21-4.242-1.891-6.658-.682-2.415-1.441-5.128-2.146-7.696a557.812 557.812 0 01-1.984-7.412 394.96 394.96 0 01-3.847-16.172 271.036 271.036 0 01-1.606-8.039 254.697 254.697 0 01-1.352-8.061 231.19 231.19 0 01-1.171-8.881c-.36-3.203-.687-6.708-.923-9.836a207.663 207.663 0 01-.475-8.655c-.1-2.776-.141-5.575-.142-8.258 0-2.683.05-5.249.144-7.967.1-2.718.252-5.587.405-7.915.154-2.327.307-4.11.494-5.965.187-1.855.406-3.781.67-5.789.264-2.009.572-4.103.852-5.856.281-1.753.534-3.166.768-4.393.233-1.227.446-2.267.701-3.436a161 161 0 01.847-3.665 121.061 121.061 0 011.755-6.41 104.46 104.46 0 012.427-7.024c.46-1.188.937-2.341 1.42-3.437a67.985 67.985 0 013.323-6.579 55.41 55.41 0 012.02-3.243 45.445 45.445 0 012.207-3.017 43.552 43.552 0 012.597-2.975 41.612 41.612 0 013.04-2.873 44.675 44.675 0 013.34-2.586 35.558 35.558 0 013.218-2.011 43.575 43.575 0 013.355-1.669 38.227 38.227 0 012.966-1.172 31.208 31.208 0 012.673-.803 43.214 43.214 0 013.076-.663 29.914 29.914 0 013.226-.4 43.108 43.108 0 013.954-.104c1.338.03 2.584.13 3.929.329 1.345.2 2.845.509 4.139.852 1.295.342 2.412.723 3.586 1.214a33.976 33.976 0 013.484 1.706 26.718 26.718 0 015.3 3.932 23.042 23.042 0 011.985 2.14 32.793 32.793 0 012.154 2.956 55.69 55.69 0 012.219 3.766 44.634 44.634 0 011.609 3.318 94.537 94.537 0 011.503 3.655c.47 1.212.889 2.363 1.359 3.716.47 1.352.953 2.79 1.522 4.513.569 1.723 1.205 3.672 1.821 5.504a165.72 165.72 0 001.765 5.03 81 81 0 001.88 4.646 62.04 62.04 0 002.06 4.213 32.23 32.23 0 001.939 3.169 26.593 26.593 0 004.89 5.337 21.716 21.716 0 002.677 1.894 22.841 22.841 0 002.88 1.464c1.033.437 2.126.819 3.345 1.138 1.218.32 2.548.572 3.875.725a29.69 29.69 0 003.887.184 27.287 27.287 0 003.534-.289c1.178-.17 2.284-.39 3.496-.704a40.511 40.511 0 003.591-1.12 34.785 34.785 0 003.058-1.28 43.214 43.214 0 002.784-1.45c.879-.5 1.754-1.042 2.725-1.706a60.435 60.435 0 003.167-2.332 50.457 50.457 0 005.143-4.671 59.074 59.074 0 002.325-2.555 67.996 67.996 0 002.33-2.866c.755-.98 1.52-2.037 2.382-3.322a97.271 97.271 0 002.789-4.426 96.141 96.141 0 002.679-4.841 116.62 116.62 0 002.492-5.137 137.256 137.256 0 002.225-5.162c.68-1.668 1.327-3.356 1.855-4.788a128.02 128.02 0 001.525-4.364 313.64 313.64 0 001.521-4.746c.391-1.255.554-1.809.91-3.089.355-1.28.894-3.256 1.43-5.356.537-2.1 1.03-4.153 1.508-6.273.478-2.119.919-4.217 1.318-6.237.399-2.02.756-3.961 1.165-6.442.41-2.481.874-5.505 1.26-8.29.386-2.786.694-5.337.985-8.1.29-2.764.546-5.566.77-8.56.223-2.993.407-6.089.537-8.964.131-2.874.209-5.529.248-6.854.04-1.326.04-10.583 0-12.041-.05-1.458-.141-4.375-.276-7.244a301.975 301.975 0 00-.505-8.278 249.286 249.286 0 00-.679-7.557 335.311 335.311 0 00-.953-8.124 255.85 255.85 0 00-1.106-7.64 318.872 318.872 0 00-1.344-7.803 281.12 281.12 0 00-1.286-6.519 232.09 232.09 0 00-2.36-10.127 268.417 268.417 0 00-1.733-6.427 230.344 230.344 0 00-4.3-13.611 160.433 160.433 0 00-2.34-6.266 223.4 223.4 0 00-2.987-7.156 136.835 136.835 0 00-2.911-6.216c-.98-1.962-1.957-3.81-3.14-5.884a132.934 132.934 0 00-3.813-6.272 85.93 85.93 0 00-3.617-5.166 65.616 65.616 0 00-3.656-4.43 70.635 70.635 0 00-4.415-4.484 57.768 57.768 0 00-4.814-4.001 51.808 51.808 0 00-5.06-3.311 40.392 40.392 0 00-5.276-2.551 50.83 50.83 0 00-5.697-1.871 30.721 30.721 0 00-4.5-.842 30.953 30.953 0 00-3.951-.192c-1.307.02-2.713.131-4.129.352a30.81 30.81 0 00-4.273.985c-1.39.429-2.627.923-3.82 1.5a23.485 23.485 0 00-3.372 1.981 29.319 29.319 0 00-3.364 2.769 27.46 27.46 0 00-2.862 3.218 29.487 29.487 0 00-2.264 3.475 37.805 37.805 0 00-1.927 4.007 61.967 61.967 0 00-1.712 4.67 68.733 68.733 0 00-1.362 4.821 151.876 151.876 0 00-1.245 5.525 183.318 183.318 0 00-1.02 5.374c-.332 1.877-.687 3.978-1.032 6.018-.345 2.04-.679 4.02-1.011 5.891a221.36 221.36 0 01-1.004 5.326 138.533 138.533 0 01-1.082 4.895 84.66 84.66 0 01-1.105 4.136 57.127 57.127 0 01-1.212 3.678 51.801 51.801 0 01-1.51 3.659 34.51 34.51 0 01-1.654 3.172 26.658 26.658 0 01-1.958 2.881 29.616 29.616 0 01-2.554 2.869 25.436 25.436 0 01-2.838 2.409 25.131 25.131 0 01-6.015 3.241 22.637 22.637 0 01-3.173.931 29.768 29.768 0 01-3.586.547 25.53 25.53 0 01-3.304.08 23.894 23.894 0 01-3.104-.325 29.827 29.827 0 01-3.381-.774 31.062 31.062 0 01-3.372-1.194 27.943 27.943 0 01-3.312-1.653 45.761 45.761 0 01-3.545-2.286 29.728 29.728 0 01-3.217-2.661 57.99 57.99 0 01-3.811-3.98 46.789 46.789 0 01-3.362-4.372 61.347 61.347 0 01-3.026-4.938 70.599 70.599 0 01-2.863-5.859 103.877 103.877 0 01-2.917-7.499 141.744 141.744 0 01-2.801-9.093 182.95 182.95 0 01-2.346-9.677 218.65 218.65 0 01-1.728-8.985 224.14 224.14 0 01-1.196-7.787 294.74 294.74 0 01-.946-7.7 336.822 336.822 0 01-.737-7.535 281.204 281.204 0 01-.528-7.14c-.16-2.588-.317-5.589-.439-8.587a388.54 388.54 0 01-.257-8.702c-.05-2.831-.07-5.559-.05-8.87.02-3.311.1-7.199.238-11.312a392.728 392.728 0 011.711-25.522 370.255 370.255 0 013.124-23.515 435.182 435.182 0 012.225-12.356 479.745 479.745 0 012.567-12.303c.883-3.978 1.77-7.746 2.715-11.588a732.043 732.043 0 012.876-11.284 790.405 790.405 0 012.611-9.67 1579.764 1579.764 0 014.396-15.583c.638-2.22 1.361-4.727 2.084-7.234-2.131.459-4.26.918-6.608 1.42-2.348.501-4.911 1.046-7.576 1.602a824.106 824.106 0 01-8.731 1.775 701.1 701.1 0 01-10.921 2.073c-3.895.705-7.909 1.39-11.783 2.002a430.831 430.831 0 01-11.37 1.648c-3.758.492-7.453.927-10.976 1.296-3.523.369-6.831.668-10.61.947-3.78.28-8.026.539-12.294.73-4.269.191-8.642.315-10.808.376-2.166.06-13.284.06-15.311 0a704.12 704.12 0 01-10.159-.328 505.568 505.568 0 01-11.82-.618 442.403 442.403 0 01-9.667-.725 592.42 592.42 0 01-6.495-.598c-1.224-.118-1.223-.12-2.676-.287z"/>
</g>
</svg>