<!--viewBox="-117 -136 1000 1000" -->
<svg xmlns="http://www.w3.org/2000/svg" width="703.331" height="700.641" viewBox="0 0 186.09 185.378"><g><path d="M33.212 185.082c10.915.028 24.73-1.644 31.743-5.593 7.013-3.95 7.222-10.174 3.756-13.026-3.466-2.851-10.606-2.329-14.044-4.893-3.439-2.564-3.174-8.214 2.461-12.728 5.636-4.515 16.64-7.893 27.553-8 10.913-.108 21.73 3.055 27.258 7.762 5.528 4.708 5.765 10.959 1.79 13.687-3.976 2.727-12.165 1.93-16.256 4.736-4.091 2.807-4.085 9.218.335 13.113 4.42 3.895 13.252 5.275 22.125 5.098 8.873-.176 17.787-1.909 26.701-3.641-1.76-6.15-3.52-12.301-3.84-19.88-.318-7.577.803-16.58 4.477-21.187 3.674-4.607 9.899-4.817 13.025-1.694 3.127 3.122 3.153 9.574 6.13 12.53 2.976 2.957 8.901 2.418 13.14-3.7 4.24-6.117 6.792-17.81 6.349-29.617-.443-11.807-3.88-23.724-8.863-29.665-4.983-5.941-11.509-5.904-14.374-1.79-2.865 4.113-2.068 12.3-4.875 16.392-2.807 4.092-9.217 4.086-12.975-2.465-3.757-6.551-4.862-19.644-4.119-30.675.743-11.03 3.333-19.996 5.924-28.963-8.014 1.728-16.028 3.456-26.943 3.485-10.915.028-24.73-1.644-31.743-5.593-7.013-3.95-7.222-10.174-3.756-13.026 3.466-2.851 10.606-2.329 14.044-4.893 3.439-2.564 3.174-8.214-2.461-12.728-5.636-4.515-16.64-7.893-27.553-8C57.308.02 46.49 3.183 40.963 7.89c-5.528 4.708-5.765 10.959-1.79 13.687 3.976 2.727 12.165 1.93 16.256 4.736 4.091 2.807 4.085 9.218-.335 13.113-4.42 3.895-13.252 5.275-22.125 5.098-8.873-.176-17.787-1.909-26.701-3.641-1.76 6.15-3.52 12.302-3.838 19.88-.32 7.577.802 16.58 4.476 21.187 3.674 4.607 9.899 4.817 13.025 1.694 3.127-3.122 3.153-9.574 6.13-12.53 2.976-2.957 8.9-2.418 13.14 3.7 4.239 6.117 6.791 17.81 6.349 29.617-.443 11.807-3.88 23.725-8.864 29.666-4.983 5.94-11.509 5.903-14.374 1.79-2.865-4.114-2.067-12.302-4.874-16.394-2.807-4.091-9.217-4.085-12.975 2.466-3.757 6.55-4.862 19.644-4.119 30.674.743 11.03 3.333 19.997 5.923 28.964 8.014 1.728 16.03 3.457 26.945 3.485z" fill="none" stroke="#000" stroke-width=".25" stroke-linecap="round"/></g></svg>